{"glyphs":{"0":{"ha":922,"x_min":167,"x_max":905,"o":"m 463 -17 q 247 62 326 -17 q 167 277 167 141 q 294 614 167 475 q 603 753 421 753 q 824 676 744 753 q 905 464 905 599 q 777 122 905 261 q 463 -17 650 -17 m 472 25 q 655 111 589 25 q 735 288 701 168 q 769 507 769 408 q 596 711 769 711 q 385 574 467 711 q 303 221 303 436 q 472 25 303 25 z "},"1":{"ha":602,"x_min":100,"x_max":536,"o":"m 100 0 l 119 42 l 166 42 q 243 61 229 42 q 283 195 258 81 l 351 534 q 365 633 365 607 q 305 669 365 664 l 243 673 l 243 715 l 536 753 l 485 536 l 418 201 q 398 85 398 94 q 456 42 398 42 l 517 42 l 519 0 l 100 0 z "},"2":{"ha":789,"x_min":83,"x_max":774,"o":"m 83 0 l 120 109 q 630 568 630 381 q 587 670 630 629 q 481 711 544 711 q 275 561 317 711 l 233 561 l 254 716 q 499 753 397 753 q 700 705 625 753 q 774 576 774 657 q 704 425 774 490 q 370 205 634 361 l 206 109 l 718 109 l 675 0 l 83 0 z "},"3":{"ha":744,"x_min":26,"x_max":729,"o":"m 26 -164 l 115 -74 q 325 -168 218 -168 q 477 -106 414 -168 q 541 41 541 -44 q 464 194 541 135 q 263 252 387 252 q 207 248 241 252 l 254 353 q 373 348 316 353 q 533 435 469 372 q 597 569 597 498 q 554 671 597 631 q 444 711 511 711 q 250 561 290 711 l 208 561 l 231 713 q 483 753 377 753 q 662 710 594 753 q 729 598 729 668 q 452 334 729 448 q 663 96 663 269 q 546 -123 663 -29 q 274 -218 430 -218 q 26 -164 145 -218 z "},"4":{"ha":907,"x_min":43,"x_max":885,"o":"m 549 27 l 43 48 l 54 104 l 739 736 l 810 753 l 683 113 l 885 104 l 854 14 l 665 22 q 650 -121 650 -82 q 703 -159 650 -159 l 762 -159 l 765 -201 l 358 -201 l 377 -159 l 436 -159 q 501 -134 486 -159 q 549 27 516 -109 m 567 118 l 663 598 l 149 137 l 567 118 z "},"5":{"ha":752,"x_min":35,"x_max":806,"o":"m 35 -163 l 118 -76 q 313 -159 194 -159 q 491 -83 422 -159 q 561 112 561 -7 q 300 301 561 301 q 191 290 251 301 l 279 736 l 806 736 l 760 619 l 318 619 l 258 410 q 349 419 309 419 q 597 347 502 419 q 693 159 693 275 q 558 -101 693 16 q 256 -218 423 -218 q 35 -163 148 -218 z "},"6":{"ha":862,"x_min":166,"x_max":911,"o":"m 873 770 l 831 770 q 835 804 835 793 q 794 876 835 848 q 689 903 753 903 q 450 765 560 903 q 320 440 340 627 q 618 619 455 619 q 776 555 713 619 q 839 395 839 492 q 722 109 839 234 q 453 -17 605 -17 q 244 74 321 -17 q 166 320 166 165 q 337 762 166 570 q 730 954 508 954 q 911 913 813 954 l 873 770 m 492 25 q 648 118 583 25 q 713 342 713 212 q 555 552 713 552 q 380 467 454 552 q 307 264 307 382 q 359 92 307 159 q 492 25 411 25 z "},"7":{"ha":771,"x_min":91,"x_max":876,"o":"m 91 -218 q 257 93 118 -68 l 675 537 l 749 619 l 191 619 l 238 736 l 876 736 l 846 661 q 250 -201 288 66 l 91 -218 z "},"8":{"ha":828,"x_min":132,"x_max":858,"o":"m 395 498 l 382 507 q 287 681 287 573 q 393 871 287 788 q 637 954 500 954 q 797 907 735 954 q 858 787 858 861 q 614 512 858 648 q 783 281 783 406 q 664 75 783 168 q 396 -17 545 -17 q 208 44 283 -17 q 132 197 132 106 q 395 498 132 357 m 572 536 q 745 760 745 643 q 699 862 745 821 q 586 903 654 903 q 458 852 511 903 q 405 726 405 800 q 528 566 405 646 l 572 536 m 429 469 q 265 216 265 382 q 318 83 265 132 q 458 33 370 33 q 596 91 538 33 q 655 227 655 149 q 486 433 655 323 l 429 469 z "},"9":{"ha":862,"x_min":91,"x_max":834,"o":"m 130 -42 l 172 -42 l 171 -70 q 316 -176 171 -176 q 554 -37 444 -176 q 685 289 665 101 q 385 109 549 109 q 224 173 288 109 q 161 336 161 238 q 278 626 161 500 q 547 753 395 753 q 756 662 679 753 q 834 416 834 571 q 664 -26 834 165 q 270 -218 493 -218 q 91 -185 201 -218 l 130 -42 m 510 703 q 352 612 418 703 q 287 393 287 521 q 448 184 287 184 q 626 267 552 184 q 701 466 701 350 q 647 636 701 569 q 510 703 593 703 z "}," ":{"ha":461,"x_min":0,"x_max":0,"o":""},"!":{"ha":351,"x_min":111,"x_max":454,"o":"m 111 86 l 216 168 l 296 58 l 191 -17 l 111 86 m 216 262 l 275 801 l 316 1004 l 454 1029 l 409 801 l 254 275 l 216 262 z "},"\"":{"ha":519,"x_min":268,"x_max":636,"o":"m 314 736 l 268 1071 l 401 1071 l 356 736 l 314 736 m 548 736 l 502 1071 l 636 1071 l 590 736 l 548 736 z "},"#":{"ha":878,"x_min":114,"x_max":964,"o":"m 132 0 l 278 309 l 114 309 l 123 376 l 309 376 l 428 627 l 177 627 l 186 694 l 459 694 l 605 1004 l 681 1004 l 535 694 l 724 694 l 870 1004 l 946 1004 l 800 694 l 964 694 l 956 627 l 768 627 l 650 376 l 901 376 l 892 309 l 619 309 l 473 0 l 397 0 l 543 309 l 353 309 l 208 0 l 132 0 m 385 376 l 574 376 l 693 627 l 503 627 l 385 376 z "},"$":{"ha":708,"x_min":83,"x_max":724,"o":"m 328 -100 l 349 1 q 320 0 329 0 q 83 36 191 0 l 167 122 q 359 52 264 58 l 412 317 l 366 347 q 243 517 243 429 q 310 655 243 599 q 494 731 376 712 l 515 837 l 557 837 l 536 736 q 724 700 626 736 l 687 552 l 646 552 q 651 590 651 576 q 527 687 651 676 l 475 424 l 513 396 q 613 309 590 340 q 636 232 636 279 q 569 93 636 155 q 391 7 502 31 l 370 -100 l 328 -100 m 438 450 l 485 686 q 346 570 346 669 q 415 469 346 525 l 438 450 m 401 56 q 533 178 533 78 q 471 272 533 229 l 448 289 l 401 56 z "},"%":{"ha":1054,"x_min":123,"x_max":1136,"o":"m 363 502 q 240 551 286 502 q 193 680 193 600 q 270 909 193 814 q 455 1004 347 1004 q 582 956 534 1004 q 629 825 629 907 q 551 596 629 690 q 363 502 474 502 m 293 674 q 375 544 293 544 q 487 632 437 544 q 537 830 537 720 q 455 963 537 963 q 342 874 392 963 q 293 674 293 786 m 800 0 q 677 49 724 0 q 631 178 631 98 q 707 407 631 312 q 892 502 784 502 q 1019 454 972 502 q 1066 323 1066 406 q 989 94 1066 188 q 800 0 911 0 m 730 171 q 812 41 730 41 q 925 130 875 41 q 975 328 975 218 q 892 461 975 461 q 780 373 829 461 q 730 171 730 284 m 123 -25 l 1047 1029 l 1136 1029 l 212 -25 l 123 -25 z "},"&":{"ha":1138,"x_min":134,"x_max":1217,"o":"m 694 92 q 408 -25 549 -25 q 213 52 291 -25 q 134 243 134 128 q 454 591 134 461 q 417 751 417 693 q 508 944 417 858 q 711 1029 598 1029 q 841 983 791 1029 q 890 863 890 937 q 590 582 890 676 q 783 205 677 349 q 906 452 888 315 l 766 452 l 831 552 l 1010 552 q 1217 596 1144 552 l 1164 513 q 1013 452 1084 452 l 991 452 q 807 171 938 289 q 966 50 903 50 q 1107 109 1019 50 q 1129 123 1115 114 l 1119 73 q 895 -25 1000 -25 q 795 -3 833 -25 q 694 92 758 20 m 577 622 q 779 868 779 701 q 681 987 779 987 q 581 937 619 987 q 543 804 543 886 q 577 622 543 730 m 672 127 q 465 552 551 305 q 276 283 276 467 q 335 122 276 186 q 483 58 393 58 q 672 127 563 58 z "},"'":{"ha":318,"x_min":243,"x_max":410,"o":"m 306 703 l 243 1071 l 410 1071 l 347 703 l 306 703 z "},"(":{"ha":490,"x_min":157,"x_max":633,"o":"m 367 -163 l 359 -201 q 157 290 157 -45 q 294 802 157 549 q 633 1171 430 1055 l 622 1117 q 424 852 500 1019 q 315 516 359 713 q 271 172 271 319 q 367 -163 271 -37 z "},")":{"ha":490,"x_min":52,"x_max":528,"o":"m 318 1134 l 326 1171 q 528 682 528 1016 q 391 168 528 421 q 52 -201 255 -85 l 63 -146 q 261 118 184 -48 q 370 454 326 257 q 414 798 414 652 q 318 1134 414 1006 z "},"*":{"ha":707,"x_min":225,"x_max":778,"o":"m 411 469 l 454 684 l 291 544 l 225 544 l 430 720 l 227 720 l 249 778 l 454 778 l 313 945 l 371 945 l 479 815 l 516 1004 l 596 1029 l 557 824 l 707 945 l 776 945 l 568 778 l 778 778 l 753 720 l 557 720 l 696 544 l 640 544 l 529 684 l 491 494 l 411 469 z "},"+":{"ha":878,"x_min":144,"x_max":895,"o":"m 408 33 l 474 364 l 144 364 l 159 439 l 489 439 l 555 770 l 630 770 l 564 439 l 895 439 l 880 364 l 549 364 l 484 33 l 408 33 z "},",":{"ha":393,"x_min":34,"x_max":332,"o":"m 98 120 l 233 218 l 332 85 q 247 -126 325 -52 q 34 -201 170 -201 l 72 -159 q 199 -17 178 -149 l 98 120 z "},"-":{"ha":435,"x_min":132,"x_max":470,"o":"m 132 368 l 161 469 l 470 469 l 441 368 l 132 368 z "},".":{"ha":393,"x_min":99,"x_max":335,"o":"m 99 121 l 232 218 l 335 85 l 199 -17 l 99 121 z "},"/":{"ha":740,"x_min":-40,"x_max":913,"o":"m -40 -201 l 824 1171 l 913 1171 l 51 -201 l -40 -201 z "},":":{"ha":381,"x_min":92,"x_max":434,"o":"m 92 121 l 224 218 l 328 85 l 191 -17 l 92 121 m 198 656 l 332 753 l 434 621 l 298 519 l 198 656 z "},";":{"ha":378,"x_min":25,"x_max":432,"o":"m 89 120 l 224 218 l 323 85 q 238 -126 316 -52 q 25 -201 161 -201 l 63 -159 q 190 -17 169 -149 l 89 120 m 196 656 l 329 753 l 432 621 l 296 519 l 196 656 z "},"<":{"ha":878,"x_min":151,"x_max":961,"o":"m 961 770 l 940 679 l 319 393 l 830 113 l 814 33 l 151 401 l 961 770 z "},"=":{"ha":878,"x_min":120,"x_max":918,"o":"m 120 247 l 135 322 l 871 322 l 857 247 l 120 247 m 167 481 l 182 556 l 918 556 l 903 481 l 167 481 z "},">":{"ha":878,"x_min":151,"x_max":961,"o":"m 151 33 l 172 125 l 793 410 l 282 691 l 298 770 l 961 401 l 151 33 z "},"?":{"ha":694,"x_min":203,"x_max":760,"o":"m 203 82 l 310 168 l 392 56 l 286 -17 l 203 82 m 266 263 q 425 502 279 377 l 453 526 q 614 823 614 665 q 574 942 614 897 q 467 987 533 987 q 271 820 313 987 l 229 820 l 262 981 q 510 1029 401 1029 q 692 979 623 1029 q 760 845 760 928 q 619 614 760 733 l 548 553 q 406 321 433 456 l 401 302 l 266 263 z "},"@":{"ha":1196,"x_min":161,"x_max":1251,"o":"m 847 30 q 614 -25 728 -25 q 289 93 416 -25 q 161 392 161 210 q 328 810 161 618 q 802 1029 518 1029 q 1123 907 994 1029 q 1251 604 1251 785 q 1150 321 1251 441 q 912 200 1048 200 q 794 294 794 200 q 817 402 794 307 l 823 431 l 808 431 q 547 201 673 201 q 422 358 422 201 q 534 657 422 519 q 778 795 646 795 q 890 773 810 795 q 908 768 894 772 l 971 768 l 894 380 q 886 314 886 341 q 955 251 886 251 q 1129 364 1049 251 q 1209 611 1209 477 q 1090 879 1209 770 q 795 987 970 987 q 386 806 568 987 q 203 400 203 625 q 319 125 203 233 q 612 17 434 17 q 832 68 719 17 l 847 30 m 829 555 l 857 699 q 734 728 802 728 q 582 631 643 728 q 520 391 520 535 q 584 284 520 284 q 829 555 682 284 z "},"A":{"ha":1354,"x_min":62,"x_max":1427,"o":"m 62 57 l 153 149 q 322 50 218 50 q 510 133 422 50 q 720 428 597 216 l 1012 932 q 885 941 938 941 q 666 870 743 941 q 589 668 589 800 l 456 602 q 528 813 469 730 q 680 945 592 906 q 933 996 767 985 q 1034 1004 966 998 l 1172 1029 l 1181 803 l 1220 334 q 1258 119 1234 171 q 1348 67 1283 67 q 1427 71 1359 67 l 1418 26 l 1107 -25 l 1079 309 l 709 309 q 507 49 602 123 q 279 -25 411 -25 q 62 57 153 -25 m 739 359 l 1074 359 l 1031 869 l 739 359 z "},"B":{"ha":1091,"x_min":142,"x_max":1120,"o":"m 142 0 l 242 100 l 256 100 q 397 147 358 100 q 468 355 435 193 l 587 951 q 361 876 447 951 q 275 680 275 801 l 275 665 l 143 602 q 304 906 160 809 q 739 1004 449 1004 q 1032 960 944 1004 q 1120 813 1120 916 q 808 524 1120 606 q 1069 294 1069 440 q 926 73 1069 163 q 574 -17 783 -17 l 414 -12 l 142 0 m 647 540 l 682 540 q 890 614 808 540 q 972 802 972 688 q 748 962 972 962 l 731 962 l 647 540 m 395 88 l 465 73 q 684 50 569 50 q 917 268 917 50 q 847 436 917 374 q 658 497 778 497 l 638 497 l 623 421 q 395 88 578 199 z "},"C":{"ha":949,"x_min":157,"x_max":1080,"o":"m 903 62 q 525 -25 688 -25 q 254 73 350 -25 q 157 350 157 172 q 342 831 157 633 q 789 1029 527 1029 q 1080 989 946 1029 l 1023 803 l 980 803 q 987 855 987 835 q 922 951 987 914 q 755 987 858 987 q 483 849 600 987 q 357 622 406 758 q 308 365 308 486 q 385 134 308 218 q 596 50 462 50 q 916 126 747 50 l 903 62 z "},"D":{"ha":1350,"x_min":142,"x_max":1345,"o":"m 143 0 l 243 100 l 253 102 q 271 101 257 102 q 286 100 277 100 q 397 145 359 100 q 458 307 435 191 l 586 951 q 360 876 446 951 q 274 680 274 801 l 274 665 l 142 602 q 722 1004 178 1004 l 918 1004 q 1244 919 1144 1004 q 1345 644 1345 835 q 1131 158 1345 334 q 540 -17 917 -17 q 477 -15 524 -17 l 143 0 m 388 85 l 509 65 q 709 48 607 48 q 926 86 848 48 q 1071 227 1004 125 q 1188 625 1188 406 q 815 962 1188 962 l 730 962 l 627 442 q 550 228 599 300 q 388 85 501 155 z "},"E":{"ha":1021,"x_min":142,"x_max":1132,"o":"m 142 0 l 243 100 l 254 100 q 396 143 357 100 q 464 331 435 186 l 587 951 q 361 876 448 951 q 275 680 275 801 l 275 665 l 144 602 q 305 905 161 807 q 733 1004 450 1004 l 1132 1004 l 1072 812 l 1029 812 q 1034 859 1034 838 q 973 933 1034 913 q 749 954 911 954 l 728 954 l 650 552 l 952 552 l 883 482 q 673 502 729 502 l 640 502 l 625 429 q 553 233 602 305 q 397 90 505 161 l 723 77 l 794 75 q 1001 151 905 75 l 990 96 q 764 -25 870 -25 l 733 -24 l 142 0 z "},"F":{"ha":1064,"x_min":1,"x_max":1243,"o":"m 493 465 l 541 519 l 613 519 l 699 951 q 473 876 559 951 q 387 680 387 801 l 387 665 l 255 602 q 417 907 273 810 q 852 1004 561 1004 l 1243 1004 l 1182 812 l 1139 812 q 1147 865 1147 839 q 870 954 1147 954 l 841 954 l 755 519 l 1050 519 l 983 450 q 777 465 875 465 l 744 465 l 705 266 q 513 -135 655 15 q 182 -285 371 -285 q 1 -208 81 -285 l 100 -106 q 273 -218 154 -218 q 443 -120 381 -218 q 555 227 505 -22 l 602 465 l 493 465 z "},"G":{"ha":1054,"x_min":157,"x_max":1095,"o":"m 240 -218 l 355 -153 q 564 -228 437 -228 q 702 -175 654 -228 q 779 7 749 -123 q 785 33 781 16 q 533 -1 665 -1 q 258 100 359 -1 q 157 373 157 200 q 346 837 157 644 q 800 1029 534 1029 q 1095 991 951 1029 l 1041 812 l 1000 812 q 1002 853 1002 836 q 937 950 1002 913 q 766 987 872 987 q 446 804 584 987 q 308 380 308 621 q 396 148 308 233 q 636 63 484 63 q 795 84 730 63 l 863 422 l 743 422 q 526 346 623 422 l 534 393 q 779 511 656 511 l 1021 511 l 968 301 l 937 141 q 781 -181 892 -79 q 475 -284 669 -284 q 240 -218 328 -284 z "},"H":{"ha":1430,"x_min":54,"x_max":1763,"o":"m 491 498 l 537 552 l 620 552 l 697 941 q 649 947 663 947 q 464 868 541 947 q 388 678 388 789 l 388 669 l 256 604 q 815 1004 288 1004 l 852 1004 l 762 552 l 1181 552 l 1221 755 q 1376 1072 1260 955 q 1651 1188 1493 1188 q 1763 1171 1714 1188 l 1704 1070 q 1577 1130 1634 1130 q 1462 1069 1506 1130 q 1389 864 1419 1009 l 1280 357 q 1246 140 1246 193 q 1322 71 1246 71 q 1417 78 1355 71 l 1408 35 l 1065 -25 l 1170 498 l 751 498 l 735 417 q 566 104 696 225 q 265 -17 435 -17 q 54 60 140 -17 l 149 158 q 339 46 214 46 q 576 335 519 46 l 609 498 l 491 498 z "},"I":{"ha":627,"x_min":8,"x_max":802,"o":"m 8 0 l 110 100 l 155 100 q 270 151 233 100 q 336 350 307 201 l 446 903 l 262 903 l 361 1004 l 802 1004 l 699 903 l 589 903 l 493 423 q 265 90 449 203 l 529 83 l 431 -17 l 8 0 z "},"J":{"ha":738,"x_min":-79,"x_max":921,"o":"m -79 -127 l 14 -33 q 203 -163 75 -163 q 335 -99 288 -163 q 414 121 383 -35 l 570 903 l 389 903 l 484 1004 l 921 1004 l 817 903 l 712 903 l 580 239 q 425 -99 536 19 q 151 -218 313 -218 q -79 -127 24 -218 z "},"K":{"ha":1375,"x_min":54,"x_max":1499,"o":"m 54 62 l 151 161 q 340 50 218 50 q 576 339 519 50 l 696 941 q 648 947 662 947 q 464 868 540 947 q 387 678 387 789 l 387 669 l 256 604 q 409 901 271 798 q 791 1004 547 1004 l 851 1004 l 755 518 l 1109 854 q 1410 1029 1294 1029 q 1499 1004 1456 1029 l 1406 904 q 1350 928 1377 928 q 1129 815 1271 928 q 883 556 987 702 q 1014 330 908 513 q 1274 67 1164 67 q 1400 124 1310 67 l 1390 73 q 1192 -25 1273 -25 q 1008 87 1101 -25 q 753 508 916 200 l 735 421 q 565 109 697 230 q 264 -13 433 -13 q 54 62 140 -13 z "},"L":{"ha":930,"x_min":12,"x_max":934,"o":"m 12 0 l 109 100 l 148 100 q 266 147 229 100 q 330 328 303 194 l 399 675 q 540 929 430 829 q 789 1029 650 1029 q 934 985 852 1029 l 900 816 l 857 816 q 859 845 859 833 q 728 971 859 971 q 557 752 600 971 l 494 440 q 417 224 467 300 q 262 91 367 149 l 641 85 q 928 161 804 85 l 918 110 q 775 2 823 26 q 649 -21 728 -21 l 12 0 z "},"M":{"ha":1609,"x_min":54,"x_max":1603,"o":"m 54 62 l 151 162 q 342 50 220 50 q 484 117 422 50 q 568 297 545 185 l 696 941 q 648 947 661 947 q 461 867 536 947 q 387 669 387 787 l 255 604 q 406 899 269 793 q 774 1004 543 1004 l 829 1004 q 1013 286 955 654 l 1457 1004 l 1603 1021 l 1551 803 l 1440 249 q 1426 131 1426 175 q 1499 71 1426 71 q 1595 79 1535 71 l 1586 35 l 1251 -31 l 1427 852 l 963 109 l 893 98 l 893 117 q 764 776 893 382 l 708 499 q 264 -13 606 -13 q 54 62 145 -13 z "},"N":{"ha":1430,"x_min":54,"x_max":1765,"o":"m 54 64 l 151 163 q 341 50 220 50 q 484 118 422 50 q 568 298 545 185 l 696 941 q 647 947 661 947 q 461 867 536 947 q 387 669 387 787 l 255 604 q 402 894 269 784 q 741 1004 536 1004 l 806 1004 q 989 622 876 825 l 1076 469 q 1208 213 1166 311 l 1286 605 q 1426 919 1326 808 q 1666 1029 1525 1029 q 1765 1010 1716 1029 l 1716 919 q 1600 966 1655 966 q 1403 711 1453 966 l 1301 201 l 1270 0 l 1183 -30 q 1040 256 1158 47 l 874 551 q 764 762 808 669 l 713 500 q 548 120 663 253 q 266 -13 432 -13 q 54 64 149 -13 z "},"O":{"ha":1088,"x_min":157,"x_max":1126,"o":"m 519 -25 q 255 79 352 -25 q 157 360 157 182 q 341 828 157 627 q 767 1029 524 1029 q 1029 927 932 1029 q 1126 650 1126 825 q 947 174 1126 372 q 519 -25 768 -25 m 545 21 q 848 208 722 21 q 974 655 974 394 q 744 986 974 986 q 441 802 568 986 q 314 359 314 617 q 545 21 314 21 z "},"P":{"ha":1063,"x_min":142,"x_max":1150,"o":"m 142 0 l 243 100 l 256 100 l 286 100 q 402 153 366 100 q 471 368 439 206 l 587 951 q 361 876 448 951 q 275 680 275 801 l 275 665 l 143 602 q 307 908 162 812 q 751 1004 451 1004 q 1058 958 966 1004 q 1150 803 1150 911 q 1087 626 1150 716 q 928 487 1024 536 q 676 431 818 431 l 658 431 l 684 473 l 696 473 q 914 559 826 473 q 1002 771 1002 644 q 731 962 1002 962 l 622 413 q 397 89 581 206 l 659 83 l 565 -17 l 142 0 z "},"Q":{"ha":1031,"x_min":86,"x_max":1181,"o":"m 86 53 l 166 131 l 275 87 q 669 227 522 106 q 828 441 766 307 q 890 707 890 576 q 830 907 890 827 q 677 987 769 987 q 430 845 536 987 q 325 511 325 702 q 450 326 325 326 q 605 381 524 326 l 593 323 q 382 243 486 243 q 241 309 294 243 q 188 486 188 376 q 350 861 188 694 q 711 1029 511 1029 q 947 932 851 1029 q 1044 696 1044 836 q 871 301 1044 471 q 380 46 698 132 l 801 -125 q 990 -172 913 -172 q 1181 -108 1077 -172 l 1171 -161 q 947 -268 1045 -268 q 791 -227 893 -268 l 86 53 z "},"R":{"ha":1218,"x_min":142,"x_max":1348,"o":"m 142 0 l 243 100 l 252 100 q 266 98 255 100 q 292 96 277 96 q 399 147 361 96 q 462 319 437 197 l 587 951 q 361 876 448 951 q 275 680 275 801 l 275 665 l 144 602 q 306 907 162 810 q 743 1004 450 1004 q 1063 960 972 1004 q 1155 807 1155 916 q 891 499 1155 627 l 1054 226 q 1183 80 1141 80 q 1348 200 1229 80 l 1335 136 q 1116 -17 1187 -17 q 914 187 1025 -17 l 762 469 l 633 469 l 621 408 q 396 89 581 206 l 661 83 l 568 -17 l 142 0 m 642 511 l 821 511 q 1006 789 1006 602 q 758 962 1006 962 l 732 962 l 642 511 z "},"S":{"ha":806,"x_min":79,"x_max":862,"o":"m 79 38 l 173 134 q 431 33 298 33 q 583 86 524 33 q 642 221 642 138 q 531 401 642 302 l 435 486 q 303 617 329 579 q 278 719 278 655 q 385 938 278 846 q 641 1029 492 1029 q 862 973 735 1029 l 828 803 l 785 803 q 787 832 787 824 q 735 936 787 897 q 599 975 684 975 q 452 923 511 975 q 392 795 392 871 q 422 701 392 743 q 548 576 452 658 l 628 507 q 762 293 762 393 q 636 68 762 162 q 337 -25 511 -25 q 79 38 204 -25 z "},"T":{"ha":993,"x_min":132,"x_max":1400,"o":"m 262 0 l 363 100 l 373 98 q 412 96 381 96 q 524 150 488 96 q 591 359 560 203 l 699 903 l 528 903 q 267 697 267 903 q 273 637 267 673 l 132 571 q 304 887 160 770 q 668 1004 449 1004 l 956 1004 q 1213 1029 1150 1004 q 1299 1144 1276 1055 l 1400 1185 q 1217 981 1353 1059 q 909 903 1082 903 l 842 903 l 747 431 q 673 230 722 303 q 519 89 624 156 l 781 83 l 686 -17 l 262 0 z "},"U":{"ha":1356,"x_min":140,"x_max":1345,"o":"m 987 -25 l 1029 184 q 707 -25 879 -25 q 515 59 587 -25 q 444 283 444 142 q 485 568 444 370 q 581 941 526 766 q 532 947 546 947 q 346 867 420 947 q 271 669 271 787 l 140 604 q 690 1004 170 1004 l 739 1004 q 633 598 677 810 q 589 286 589 387 q 633 114 589 176 q 754 52 676 52 q 916 122 836 52 q 1055 318 996 193 l 1192 1004 l 1345 1021 l 1294 803 l 1197 317 q 1171 144 1171 184 q 1261 71 1171 71 q 1342 78 1293 71 l 1333 35 l 987 -25 z "},"V":{"ha":1238,"x_min":85,"x_max":1438,"o":"m 692 -17 l 696 160 q 601 890 696 686 q 353 1105 500 1105 q 119 936 221 1105 l 85 954 q 414 1188 235 1188 q 840 211 840 1188 l 1057 551 q 1254 937 1254 859 q 1193 962 1254 962 l 1139 962 l 1147 1004 l 1438 1004 l 1430 962 l 1373 962 l 764 0 l 692 -17 z "},"W":{"ha":1609,"x_min":74,"x_max":1788,"o":"m 628 -17 l 640 387 q 563 923 640 741 q 336 1105 486 1105 q 104 956 214 1105 l 74 975 q 396 1188 244 1188 q 689 967 591 1188 q 774 352 774 778 l 776 268 l 1123 974 l 1188 992 q 1216 782 1199 888 l 1230 696 q 1282 224 1255 528 l 1428 509 q 1596 928 1596 841 q 1519 962 1596 962 l 1495 962 l 1503 1004 l 1788 1004 l 1780 962 l 1717 962 l 1219 0 l 1150 -17 l 1152 66 q 1083 772 1152 452 l 698 0 l 628 -17 z "},"X":{"ha":1065,"x_min":7,"x_max":1228,"o":"m 565 477 l 471 760 q 363 930 414 930 q 210 796 315 930 l 226 883 q 422 1029 327 1029 q 621 792 542 1029 l 681 616 l 845 817 q 1145 1029 1019 1029 q 1228 1002 1192 1029 l 1114 887 q 1069 901 1088 901 q 793 667 998 901 l 699 559 l 806 243 q 923 68 865 68 q 1065 182 978 68 l 1050 106 q 857 -25 956 -25 q 669 174 739 -25 l 584 421 l 373 161 q 125 -25 222 -25 q 7 35 63 -25 l 115 142 q 171 106 138 106 q 458 354 242 106 l 565 477 z "},"Y":{"ha":1137,"x_min":193,"x_max":1197,"o":"m 273 -223 l 366 -134 q 558 -230 446 -230 q 812 102 730 -230 l 869 331 q 572 38 688 38 q 464 237 479 38 l 424 742 q 335 945 408 945 q 193 865 283 945 l 204 920 q 392 1029 314 1029 q 516 947 475 1029 q 573 673 558 865 l 601 301 q 654 168 611 168 q 759 245 688 168 q 896 433 830 323 l 1040 1004 l 1197 1017 l 1135 803 l 1002 271 q 493 -284 864 -284 q 273 -223 377 -284 z "},"Z":{"ha":929,"x_min":57,"x_max":977,"o":"m 57 -17 l 75 72 l 829 867 q 694 852 754 852 q 548 873 633 852 l 473 890 q 433 901 450 897 q 353 914 378 914 q 229 873 300 914 l 241 928 q 450 1021 345 1021 q 536 1008 477 1021 l 614 990 q 794 970 704 970 q 977 1004 898 970 l 959 911 l 219 122 q 369 142 303 142 q 485 130 410 142 l 606 109 q 669 96 619 106 q 742 87 716 87 q 927 195 845 87 l 913 127 q 687 -25 799 -25 q 532 -3 635 -25 l 441 17 q 309 33 367 33 q 57 -17 229 33 z "},"[":{"ha":490,"x_min":105,"x_max":713,"o":"m 105 -201 l 378 1171 l 713 1171 l 705 1130 l 487 1130 l 231 -159 l 448 -159 l 439 -201 l 105 -201 z "},"\\":{"ha":705,"x_min":248,"x_max":648,"o":"m 578 -201 l 248 1171 l 317 1171 l 648 -201 l 578 -201 z "},"]":{"ha":490,"x_min":-30,"x_max":578,"o":"m 578 1171 l 305 -201 l -30 -201 l -22 -159 l 196 -159 l 452 1130 l 235 1130 l 243 1171 l 578 1171 z "},"^":{"ha":878,"x_min":125,"x_max":861,"o":"m 125 268 l 640 1004 l 861 268 l 781 268 l 613 834 l 215 268 l 125 268 z "},"_":{"ha":694,"x_min":50,"x_max":627,"o":"m 50 -88 l 67 0 l 627 0 l 610 -88 l 50 -88 z "},"`":{"ha":812,"x_min":539,"x_max":766,"o":"m 766 924 l 680 870 q 539 1050 631 968 l 620 1113 q 766 924 704 1029 z "},"a":{"ha":928,"x_min":125,"x_max":995,"o":"m 667 368 l 655 368 q 471 91 578 198 q 269 -17 363 -17 q 125 162 125 -17 q 283 549 125 359 q 680 745 446 745 q 883 736 777 745 l 834 536 l 768 201 q 753 99 753 122 q 793 56 753 56 q 995 205 861 56 l 983 142 q 716 -17 834 -17 q 618 85 618 -17 q 634 201 618 119 l 667 368 m 722 640 q 553 677 636 677 q 355 522 429 677 q 269 190 269 337 q 331 83 269 83 q 499 206 389 83 q 691 486 608 328 l 722 640 z "},"b":{"ha":854,"x_min":126,"x_max":903,"o":"m 126 0 l 174 201 l 268 669 q 452 1052 317 915 q 781 1188 587 1188 q 903 1174 848 1188 l 810 1077 q 674 1113 731 1113 q 512 1035 566 1113 q 415 736 458 956 l 342 368 l 353 368 q 539 646 431 539 q 741 753 646 753 q 884 574 884 753 q 728 186 884 376 q 334 -8 566 -8 q 246 -6 299 -8 l 126 0 m 288 96 q 457 58 372 58 q 654 214 580 58 q 741 546 741 399 q 678 652 741 652 q 511 530 621 652 q 318 250 401 408 l 288 96 z "},"c":{"ha":759,"x_min":136,"x_max":770,"o":"m 729 186 l 719 134 q 354 -17 496 -17 q 196 50 256 -17 q 136 225 136 116 q 286 588 136 422 q 614 753 435 753 q 770 718 692 753 l 725 544 l 683 544 l 685 554 q 692 601 692 586 q 565 694 692 694 q 366 567 446 694 q 287 247 287 439 q 424 63 287 63 q 729 186 554 63 z "},"d":{"ha":928,"x_min":125,"x_max":1367,"o":"m 667 368 l 655 368 q 470 90 577 197 q 269 -17 363 -17 q 125 163 125 -17 q 196 418 125 285 q 377 643 266 552 q 526 724 452 703 q 743 745 601 745 q 826 950 783 879 q 948 1082 869 1021 q 1244 1188 1082 1188 q 1367 1174 1312 1188 l 1274 1078 q 1137 1113 1193 1113 q 973 1034 1028 1113 q 875 738 918 955 l 768 201 q 752 100 752 122 q 792 56 752 56 q 995 205 860 56 l 982 142 q 716 -17 834 -17 q 618 85 618 -17 q 634 201 618 119 l 667 368 m 722 640 q 552 677 637 677 q 355 522 429 677 q 268 190 268 337 q 331 83 268 83 q 499 206 389 83 q 691 486 608 329 l 722 640 z "},"e":{"ha":752,"x_min":136,"x_max":730,"o":"m 730 185 l 720 133 q 353 -17 505 -17 q 196 51 256 -17 q 136 225 136 118 q 283 585 136 416 q 595 753 429 753 q 693 713 656 753 q 730 607 730 672 q 597 383 730 477 q 280 290 465 290 l 279 259 q 425 61 279 61 q 730 185 550 61 m 281 332 q 519 410 433 344 q 604 581 604 476 q 529 685 604 685 q 372 577 448 685 q 281 332 296 469 z "},"f":{"ha":568,"x_min":-289,"x_max":923,"o":"m -289 -443 l -192 -342 q -59 -368 -127 -368 q 91 -302 38 -368 q 169 -85 143 -237 l 299 686 l 147 686 l 195 736 l 309 736 l 311 745 q 490 1065 350 942 q 814 1188 629 1188 q 923 1177 873 1188 l 826 1074 q 696 1113 763 1113 q 545 1053 595 1113 q 464 833 496 993 l 444 736 l 698 736 l 643 676 q 470 686 557 686 l 435 686 l 336 103 q 157 -307 291 -163 q -178 -452 24 -452 q -289 -443 -231 -452 z "},"g":{"ha":853,"x_min":-39,"x_max":874,"o":"m 211 11 q 130 174 130 52 q 292 562 130 375 q 685 745 450 745 q 874 736 730 745 l 826 536 l 794 378 q 761 195 770 254 q 686 -139 724 -45 q 553 -321 648 -232 q 229 -452 412 -452 q 35 -405 110 -452 q -39 -284 -39 -359 q 211 11 -39 -135 m 712 637 q 550 677 631 677 q 397 597 460 677 q 308 409 348 533 q 267 196 267 284 q 328 100 267 100 q 682 486 461 100 l 712 637 m 659 368 l 648 368 q 475 112 576 209 q 264 -2 375 15 q 87 -230 87 -125 q 153 -346 87 -298 q 313 -393 219 -393 q 505 -299 435 -393 q 605 0 575 -204 l 659 368 z "},"h":{"ha":922,"x_min":117,"x_max":996,"o":"m 117 -8 l 168 201 l 260 669 q 445 1052 309 915 q 774 1188 580 1188 q 896 1174 841 1188 l 803 1077 q 667 1113 724 1113 q 505 1035 559 1113 q 408 736 451 956 l 334 368 l 345 368 q 536 647 429 542 q 735 753 644 753 q 847 629 847 753 q 836 532 847 589 l 770 201 q 754 99 754 123 q 794 56 754 56 q 996 205 862 56 l 984 142 q 718 -17 836 -17 q 620 85 620 -17 q 635 201 620 119 l 702 533 q 709 598 709 572 q 669 653 709 653 q 309 242 540 653 l 260 0 l 117 -8 z "},"i":{"ha":523,"x_min":153,"x_max":601,"o":"m 601 205 l 589 142 q 322 -17 440 -17 q 224 85 224 -17 q 240 199 224 120 l 287 435 q 306 569 306 536 q 262 626 306 626 q 153 602 231 626 l 161 644 l 492 753 l 441 536 l 374 201 q 359 100 359 122 q 399 56 359 56 q 601 205 466 56 m 352 871 l 397 963 l 589 1088 l 530 963 l 352 871 z "},"j":{"ha":460,"x_min":-296,"x_max":575,"o":"m -296 -437 l -204 -341 q -63 -376 -134 -376 q 171 -94 115 -376 l 276 435 q 294 569 294 536 q 251 626 294 626 q 142 602 220 626 l 150 644 l 481 753 l 430 536 l 347 115 q 269 -156 311 -65 q 145 -323 227 -248 q -180 -452 7 -452 q -296 -437 -241 -452 m 336 871 l 381 963 l 575 1088 l 515 963 l 336 871 z "},"k":{"ha":877,"x_min":122,"x_max":916,"o":"m 122 -8 l 172 201 l 265 669 q 449 1052 314 915 q 779 1188 585 1188 q 901 1174 846 1188 l 808 1077 q 672 1113 728 1113 q 524 1051 582 1113 q 470 961 490 1015 q 412 736 451 907 l 345 440 l 353 440 q 521 666 417 580 q 729 753 625 753 q 844 642 844 753 q 750 449 844 527 q 484 342 656 371 q 769 75 676 75 q 916 157 828 75 l 907 109 q 691 -17 772 -17 q 560 47 626 -17 q 332 330 494 111 l 266 0 l 122 -8 m 339 368 l 338 359 l 361 359 q 607 437 503 359 q 711 619 711 514 q 658 686 711 686 q 339 368 543 686 z "},"l":{"ha":471,"x_min":161,"x_max":904,"o":"m 545 209 l 533 146 q 258 -17 373 -17 q 161 87 161 -17 q 176 201 161 130 l 269 669 q 453 1052 317 915 q 782 1188 588 1188 q 904 1174 850 1188 l 811 1077 q 675 1113 732 1113 q 513 1034 568 1113 q 416 736 459 956 l 309 201 q 294 99 294 123 q 334 56 294 56 q 509 177 379 56 q 545 209 519 186 z "},"m":{"ha":1422,"x_min":73,"x_max":1497,"o":"m 182 -8 l 233 201 l 299 536 q 315 637 315 614 q 275 680 315 680 q 73 531 208 680 l 85 593 q 351 753 233 753 q 449 650 449 753 q 433 536 449 616 l 400 368 l 410 368 q 599 649 496 545 q 789 753 702 753 q 865 717 834 753 q 896 627 896 681 q 884 533 896 588 l 852 368 l 861 368 q 1039 645 937 538 q 1227 753 1141 753 q 1347 625 1347 753 q 1336 532 1347 587 l 1270 201 q 1255 99 1255 123 q 1295 56 1255 56 q 1497 205 1362 56 l 1485 142 q 1218 -17 1337 -17 q 1120 85 1120 -17 q 1136 201 1120 119 l 1202 532 q 1211 597 1211 576 q 1169 653 1211 653 q 827 245 1051 653 l 777 0 l 644 -8 l 750 530 q 759 595 759 575 q 718 653 759 653 q 568 534 667 653 q 374 240 469 414 l 325 0 l 182 -8 z "},"n":{"ha":987,"x_min":73,"x_max":1062,"o":"m 182 -8 l 233 201 l 299 536 q 315 637 315 614 q 275 680 315 680 q 73 531 208 680 l 85 593 q 351 753 233 753 q 449 651 449 753 q 433 536 449 616 l 400 368 l 410 368 q 602 647 495 542 q 801 753 709 753 q 912 629 912 753 q 901 532 912 589 l 835 201 q 819 99 819 122 q 859 56 819 56 q 1062 205 927 56 l 1049 142 q 783 -17 901 -17 q 685 85 685 -17 q 701 201 685 119 l 767 533 q 775 598 775 572 q 734 653 775 653 q 375 242 605 653 l 326 0 l 182 -8 z "},"o":{"ha":809,"x_min":136,"x_max":823,"o":"m 344 -17 q 196 53 255 -17 q 136 226 136 122 q 284 587 136 421 q 606 753 432 753 q 762 685 701 753 q 823 512 823 617 q 675 146 823 309 q 344 -17 527 -17 m 421 42 q 598 171 522 42 q 674 471 674 300 q 537 696 674 696 q 362 563 440 696 q 285 262 285 429 q 421 42 285 42 z "},"p":{"ha":922,"x_min":-288,"x_max":944,"o":"m -288 -439 l -197 -342 q -53 -376 -127 -376 q 177 -90 120 -376 l 281 435 q 300 569 300 536 q 256 626 300 626 q 146 602 225 626 l 155 644 l 486 753 l 435 534 l 401 368 l 413 368 q 598 646 490 539 q 800 753 705 753 q 944 574 944 753 q 779 177 944 364 q 429 -10 614 -10 q 351 -3 410 -10 q 328 0 344 -2 q 143 -335 275 -219 q -184 -452 11 -452 q -288 -439 -233 -452 m 347 96 q 517 58 432 58 q 713 214 640 58 q 801 546 801 399 q 738 652 801 652 q 571 530 680 652 q 378 250 462 408 l 347 96 z "},"q":{"ha":862,"x_min":125,"x_max":875,"o":"m 659 368 l 650 368 q 467 91 574 199 q 267 -17 359 -17 q 125 162 125 -17 q 282 549 125 359 q 677 745 444 745 q 875 736 758 745 l 827 536 l 705 -73 q 677 -267 677 -213 q 724 -326 677 -326 q 836 -303 764 -326 l 826 -351 l 488 -452 l 539 -234 l 659 368 m 713 639 q 548 677 639 677 q 355 522 429 677 q 268 189 268 336 q 330 83 268 83 q 519 238 404 83 q 682 486 653 416 l 713 639 z "},"r":{"ha":782,"x_min":71,"x_max":895,"o":"m 191 -8 l 241 201 l 307 532 q 317 619 317 583 q 277 677 317 677 q 71 524 205 677 l 83 585 q 355 753 240 753 q 453 642 453 753 q 441 532 453 592 l 408 368 l 417 368 q 608 645 498 538 q 810 753 718 753 q 895 732 857 753 l 804 610 q 736 636 764 636 q 385 248 604 636 l 335 0 l 191 -8 z "},"s":{"ha":627,"x_min":47,"x_max":646,"o":"m 47 23 l 136 115 q 315 50 224 50 q 410 80 372 50 q 449 153 449 109 q 372 284 449 201 l 311 352 q 220 517 220 451 q 308 681 220 610 q 508 753 395 753 q 646 727 570 753 l 616 577 l 574 577 l 576 589 q 577 603 577 595 q 459 694 577 694 q 327 589 327 694 q 406 446 327 535 l 461 385 q 552 216 552 282 q 456 54 552 125 q 237 -17 359 -17 q 47 23 151 -17 z "},"t":{"ha":633,"x_min":153,"x_max":708,"o":"m 309 686 l 153 686 l 200 736 l 318 736 l 357 928 l 497 962 l 452 736 l 708 736 l 652 677 q 497 686 565 686 l 442 686 l 350 222 q 336 121 336 150 q 383 67 336 67 q 583 176 456 67 l 571 113 q 318 -17 439 -17 q 203 111 203 -17 q 218 231 203 156 l 309 686 z "},"u":{"ha":968,"x_min":72,"x_max":1044,"o":"m 718 368 l 706 368 q 330 -17 513 -17 q 222 111 222 -17 q 233 203 222 148 l 298 536 q 314 637 314 614 q 274 680 314 680 q 72 531 208 680 l 84 593 q 351 753 232 753 q 449 651 449 753 q 433 536 449 617 l 366 202 q 357 138 357 157 q 397 83 357 83 q 552 207 448 83 q 742 493 655 330 l 791 736 l 935 745 l 884 536 l 818 201 q 802 99 802 123 q 842 56 802 56 q 1044 205 909 56 l 1032 142 q 766 -17 884 -17 q 667 85 667 -17 q 684 201 667 120 l 718 368 z "},"v":{"ha":979,"x_min":64,"x_max":984,"o":"m 420 -17 l 424 75 q 375 498 424 343 q 243 653 326 653 q 64 490 158 653 l 83 591 q 312 753 206 753 q 547 159 547 753 l 547 122 l 603 189 q 850 623 850 488 q 806 736 850 687 l 951 753 q 984 663 984 703 q 938 534 984 606 q 736 283 891 463 l 493 0 l 420 -17 z "},"w":{"ha":1312,"x_min":70,"x_max":1316,"o":"m 401 -17 q 405 117 405 50 q 372 538 405 420 q 255 656 339 656 q 70 491 176 656 l 87 583 q 320 753 208 753 q 528 205 528 753 l 528 136 q 790 730 758 465 l 853 745 q 945 153 945 447 q 1114 422 1044 281 q 1183 637 1183 564 q 1153 736 1183 680 l 1305 745 q 1316 687 1316 713 q 1254 524 1316 633 q 1049 223 1192 415 l 1013 174 l 886 0 l 818 -17 l 820 65 q 785 517 820 341 q 475 0 622 178 l 401 -17 z "},"x":{"ha":986,"x_min":94,"x_max":1053,"o":"m 94 0 l 154 124 q 211 110 179 110 q 469 296 314 110 l 510 345 l 418 562 q 350 644 383 644 q 227 534 309 644 l 244 623 q 414 753 343 753 q 537 621 479 753 l 614 444 l 659 500 q 983 753 857 753 q 1053 730 1017 753 l 983 607 q 930 624 956 624 q 665 438 817 624 l 633 399 l 734 162 q 805 77 770 77 q 939 178 853 77 l 923 97 q 739 -17 819 -17 q 615 95 663 -17 l 528 302 l 473 233 q 166 -17 277 -17 q 94 0 138 -17 z "},"y":{"ha":963,"x_min":104,"x_max":985,"o":"m 167 -432 l 260 -337 q 404 -376 328 -376 q 551 -309 498 -376 q 646 -65 604 -242 l 751 368 l 743 368 q 581 103 663 207 q 452 0 499 0 q 377 53 402 0 q 334 251 353 106 l 302 515 q 240 661 283 661 q 104 543 198 661 l 117 612 q 319 753 224 753 q 396 704 373 753 q 439 498 419 655 l 468 272 q 519 151 484 151 q 638 268 562 151 q 789 519 652 290 l 841 736 l 985 745 l 925 533 l 806 51 q 614 -323 746 -194 q 291 -452 482 -452 q 167 -432 218 -452 z "},"z":{"ha":845,"x_min":97,"x_max":848,"o":"m 97 -17 l 132 94 l 711 623 q 664 621 680 621 q 557 631 635 621 l 473 640 q 404 646 433 646 q 212 564 309 646 l 224 623 q 474 745 363 745 q 545 740 504 745 l 603 732 q 682 727 648 727 q 848 753 776 727 l 813 640 l 265 121 q 332 125 306 125 q 411 121 382 125 l 456 115 q 546 108 502 108 q 811 208 701 108 l 798 143 q 527 -8 653 -8 q 434 -1 496 -8 l 385 3 q 280 8 341 8 q 97 -17 175 8 z "},"{":{"ha":490,"x_min":149,"x_max":656,"o":"m 656 1171 l 649 1131 q 532 1081 566 1124 q 493 930 498 1038 l 489 838 q 436 600 481 679 q 285 475 392 520 q 387 315 387 425 q 353 168 387 265 l 311 39 q 286 -61 286 -32 q 392 -159 286 -138 l 383 -201 q 177 -37 177 -175 q 211 112 177 15 l 258 251 q 291 385 291 345 q 184 460 291 460 l 149 460 l 157 502 l 188 502 q 322 547 290 502 q 366 747 355 593 l 374 880 q 450 1097 385 1029 q 656 1171 515 1164 z "},"|":{"ha":334,"x_min":81,"x_max":427,"o":"m 81 -201 l 334 1071 l 427 1071 l 174 -201 l 81 -201 z "},"}":{"ha":490,"x_min":26,"x_max":533,"o":"m 26 -201 l 34 -159 q 151 -110 117 -154 q 189 41 184 -66 l 194 133 q 246 371 201 291 q 398 495 291 450 q 296 655 296 546 q 329 803 296 705 l 372 931 q 397 1031 397 1002 q 291 1130 397 1107 l 299 1171 q 505 1008 505 1147 q 472 859 505 956 l 425 720 q 392 586 392 625 q 499 511 392 511 l 533 511 l 525 469 l 495 469 q 360 423 393 469 q 317 223 327 378 l 308 90 q 234 -126 298 -59 q 26 -201 169 -193 z "},"~":{"ha":878,"x_min":130,"x_max":907,"o":"m 130 297 q 352 528 189 528 q 515 463 403 528 l 590 420 q 731 366 684 366 q 865 498 808 366 l 907 498 q 684 276 840 276 q 523 332 620 276 l 448 374 q 307 436 343 436 q 172 297 228 436 l 130 297 z "},"Ä":{"ha":1354,"x_min":62,"x_max":1427,"o":"m 62 57 l 153 149 q 322 50 218 50 q 510 133 422 50 q 720 428 597 216 l 1012 932 q 885 941 938 941 q 666 870 743 941 q 589 668 589 800 l 456 602 q 528 813 469 730 q 680 945 592 906 q 933 996 767 985 q 1034 1004 966 998 l 1172 1029 l 1181 803 l 1220 334 q 1258 119 1234 171 q 1348 67 1283 67 q 1427 71 1359 67 l 1418 26 l 1107 -25 l 1079 309 l 709 309 q 507 49 602 123 q 279 -25 411 -25 q 62 57 153 -25 m 739 359 l 1074 359 l 1031 869 l 739 359 m 899 1088 l 816 1191 l 922 1272 l 1003 1162 l 899 1088 m 1223 1088 l 1141 1193 l 1247 1272 l 1328 1164 l 1223 1088 z "},"Å":{"ha":1354,"x_min":62,"x_max":1427,"o":"m 62 57 l 153 149 q 322 50 218 50 q 510 133 422 50 q 720 428 597 216 l 1012 932 q 885 941 938 941 q 666 870 743 941 q 589 668 589 800 l 456 602 q 528 813 469 730 q 680 945 592 906 q 933 996 767 985 q 1034 1004 966 998 l 1053 1009 q 995 1101 995 1040 q 1025 1174 995 1143 q 1099 1205 1056 1205 q 1173 1175 1142 1205 q 1204 1101 1204 1144 q 1176 1026 1204 1061 l 1181 803 l 1220 334 q 1258 119 1234 171 q 1348 67 1283 67 q 1427 71 1359 67 l 1418 26 l 1107 -25 l 1079 309 l 709 309 q 507 49 602 123 q 279 -25 411 -25 q 62 57 153 -25 m 739 359 l 1074 359 l 1031 869 l 739 359 m 1041 1100 q 1099 1042 1041 1042 q 1158 1100 1158 1042 q 1099 1159 1158 1159 q 1041 1100 1041 1159 z "},"Ç":{"ha":949,"x_min":157,"x_max":1080,"o":"m 903 62 q 574 -24 727 -10 l 549 -62 q 617 -138 617 -80 q 564 -227 617 -186 q 446 -268 511 -268 q 382 -263 412 -268 l 435 -191 q 492 -212 466 -212 q 551 -163 551 -212 q 459 -106 551 -111 l 513 -26 q 243 77 329 -11 q 157 337 157 164 q 340 829 157 629 q 789 1029 523 1029 q 1080 989 946 1029 l 1023 803 l 980 803 q 987 855 987 835 q 922 951 987 914 q 755 987 858 987 q 483 849 600 987 q 357 622 406 758 q 308 365 308 486 q 385 134 308 218 q 596 50 462 50 q 916 126 747 50 l 903 62 z "},"É":{"ha":1021,"x_min":142,"x_max":1132,"o":"m 142 0 l 243 100 l 254 100 q 396 143 357 100 q 464 331 435 186 l 587 951 q 361 876 448 951 q 275 680 275 801 l 275 665 l 144 602 q 305 905 161 807 q 733 1004 450 1004 l 1132 1004 l 1072 812 l 1029 812 q 1034 859 1034 838 q 973 933 1034 913 q 749 954 911 954 l 728 954 l 650 552 l 952 552 l 883 482 q 673 502 729 502 l 640 502 l 625 429 q 553 233 602 305 q 397 90 505 161 l 723 77 l 794 75 q 1001 151 905 75 l 990 96 q 764 -25 870 -25 l 733 -24 l 142 0 m 771 1088 l 793 1149 q 1057 1331 884 1225 l 1013 1222 q 771 1088 844 1137 z "},"Ñ":{"ha":1430,"x_min":54,"x_max":1765,"o":"m 54 64 l 151 163 q 341 50 220 50 q 484 118 422 50 q 568 298 545 185 l 696 941 q 647 947 661 947 q 461 867 536 947 q 387 669 387 787 l 255 604 q 402 894 269 784 q 741 1004 536 1004 l 806 1004 q 989 622 876 825 l 1076 469 q 1208 213 1166 311 l 1286 605 q 1426 919 1326 808 q 1666 1029 1525 1029 q 1765 1010 1716 1029 l 1716 919 q 1600 966 1655 966 q 1403 711 1453 966 l 1301 201 l 1270 0 l 1183 -30 q 1040 256 1158 47 l 874 551 q 764 762 808 669 l 713 500 q 548 120 663 253 q 266 -13 432 -13 q 54 64 149 -13 m 976 1097 l 928 1088 q 981 1203 939 1159 q 1079 1246 1023 1246 q 1166 1216 1112 1246 l 1189 1203 q 1265 1175 1239 1175 q 1335 1242 1304 1175 l 1379 1255 q 1233 1088 1355 1088 q 1141 1114 1190 1088 l 1110 1132 q 1040 1156 1065 1156 q 976 1097 1000 1156 z "},"Ö":{"ha":1088,"x_min":157,"x_max":1126,"o":"m 519 -25 q 255 79 352 -25 q 157 360 157 182 q 341 828 157 627 q 767 1029 524 1029 q 1029 927 932 1029 q 1126 650 1126 825 q 947 174 1126 372 q 519 -25 768 -25 m 545 21 q 848 208 722 21 q 974 655 974 394 q 744 986 974 986 q 441 802 568 986 q 314 359 314 617 q 545 21 314 21 m 631 1088 l 548 1191 l 654 1272 l 735 1162 l 631 1088 m 956 1088 l 873 1193 l 979 1272 l 1060 1164 l 956 1088 z "},"Ü":{"ha":1356,"x_min":140,"x_max":1345,"o":"m 987 -25 l 1029 184 q 707 -25 879 -25 q 515 59 587 -25 q 444 283 444 142 q 485 568 444 370 q 581 941 526 766 q 532 947 546 947 q 346 867 420 947 q 271 669 271 787 l 140 604 q 690 1004 170 1004 l 739 1004 q 633 598 677 810 q 589 286 589 387 q 633 114 589 176 q 754 52 676 52 q 916 122 836 52 q 1055 318 996 193 l 1192 1004 l 1345 1021 l 1294 803 l 1197 317 q 1171 144 1171 184 q 1261 71 1171 71 q 1342 78 1293 71 l 1333 35 l 987 -25 m 798 1088 l 715 1191 l 822 1272 l 903 1162 l 798 1088 m 1123 1088 l 1040 1193 l 1147 1272 l 1227 1164 l 1123 1088 z "},"á":{"ha":928,"x_min":125,"x_max":995,"o":"m 667 368 l 655 368 q 471 91 578 198 q 269 -17 363 -17 q 125 162 125 -17 q 283 549 125 359 q 680 745 446 745 q 883 736 777 745 l 834 536 l 768 201 q 753 99 753 122 q 793 56 753 56 q 995 205 861 56 l 983 142 q 716 -17 834 -17 q 618 85 618 -17 q 634 201 618 119 l 667 368 m 722 640 q 553 677 636 677 q 355 522 429 677 q 269 190 269 337 q 331 83 269 83 q 499 206 389 83 q 691 486 608 328 l 722 640 m 638 870 l 660 931 q 924 1113 751 1008 l 880 1004 q 638 870 711 920 z "},"à":{"ha":928,"x_min":125,"x_max":995,"o":"m 667 368 l 655 368 q 471 91 578 198 q 269 -17 363 -17 q 125 162 125 -17 q 283 549 125 359 q 680 745 446 745 q 883 736 777 745 l 834 536 l 768 201 q 753 99 753 122 q 793 56 753 56 q 995 205 861 56 l 983 142 q 716 -17 834 -17 q 618 85 618 -17 q 634 201 618 119 l 667 368 m 722 640 q 553 677 636 677 q 355 522 429 677 q 269 190 269 337 q 331 83 269 83 q 499 206 389 83 q 691 486 608 328 l 722 640 m 845 924 l 760 870 q 618 1050 711 968 l 699 1113 q 845 924 783 1029 z "},"â":{"ha":928,"x_min":125,"x_max":995,"o":"m 667 368 l 655 368 q 471 91 578 198 q 269 -17 363 -17 q 125 162 125 -17 q 283 549 125 359 q 680 745 446 745 q 883 736 777 745 l 834 536 l 768 201 q 753 99 753 122 q 793 56 753 56 q 995 205 861 56 l 983 142 q 716 -17 834 -17 q 618 85 618 -17 q 634 201 618 119 l 667 368 m 722 640 q 553 677 636 677 q 355 522 429 677 q 269 190 269 337 q 331 83 269 83 q 499 206 389 83 q 691 486 608 328 l 722 640 m 904 919 l 821 870 q 736 1019 770 926 q 625 898 699 972 q 606 877 621 895 l 509 870 q 719 1055 655 977 l 811 1113 q 904 919 842 1007 z "},"ä":{"ha":928,"x_min":125,"x_max":995,"o":"m 667 368 l 655 368 q 471 91 578 198 q 269 -17 363 -17 q 125 162 125 -17 q 283 549 125 359 q 680 745 446 745 q 883 736 777 745 l 834 536 l 768 201 q 753 99 753 122 q 793 56 753 56 q 995 205 861 56 l 983 142 q 716 -17 834 -17 q 618 85 618 -17 q 634 201 618 119 l 667 368 m 722 640 q 553 677 636 677 q 355 522 429 677 q 269 190 269 337 q 331 83 269 83 q 499 206 389 83 q 691 486 608 328 l 722 640 m 542 870 l 459 973 l 566 1054 l 646 945 l 542 870 m 867 870 l 784 975 l 890 1054 l 971 946 l 867 870 z "},"ã":{"ha":928,"x_min":125,"x_max":995,"o":"m 667 368 l 655 368 q 471 91 578 198 q 269 -17 363 -17 q 125 162 125 -17 q 283 549 125 359 q 680 745 446 745 q 883 736 777 745 l 834 536 l 768 201 q 753 99 753 122 q 793 56 753 56 q 995 205 861 56 l 983 142 q 716 -17 834 -17 q 618 85 618 -17 q 634 201 618 119 l 667 368 m 722 640 q 553 677 636 677 q 355 522 429 677 q 269 190 269 337 q 331 83 269 83 q 499 206 389 83 q 691 486 608 328 l 722 640 m 554 880 l 507 870 q 559 985 517 941 q 657 1029 601 1029 q 744 998 690 1029 l 767 985 q 844 958 817 958 q 913 1025 882 958 l 958 1038 q 811 870 933 870 q 720 897 768 870 l 688 914 q 618 939 644 939 q 554 880 578 939 z "},"å":{"ha":928,"x_min":125,"x_max":995,"o":"m 667 368 l 655 368 q 471 91 578 198 q 269 -17 363 -17 q 125 162 125 -17 q 283 549 125 359 q 680 745 446 745 q 883 736 777 745 l 834 536 l 768 201 q 753 99 753 122 q 793 56 753 56 q 995 205 861 56 l 983 142 q 716 -17 834 -17 q 618 85 618 -17 q 634 201 618 119 l 667 368 m 722 640 q 553 677 636 677 q 355 522 429 677 q 269 190 269 337 q 331 83 269 83 q 499 206 389 83 q 691 486 608 328 l 722 640 m 745 866 q 669 898 701 866 q 637 975 637 930 q 669 1052 637 1020 q 745 1084 701 1084 q 823 1052 791 1084 q 854 975 854 1020 q 823 898 854 930 q 745 866 791 866 m 745 908 q 793 927 773 908 q 812 975 812 947 q 793 1022 812 1003 q 745 1042 773 1042 q 698 1022 718 1042 q 678 975 678 1002 q 698 927 678 947 q 745 908 718 908 z "},"ç":{"ha":759,"x_min":136,"x_max":771,"o":"m 730 186 l 720 134 q 419 -9 580 35 l 384 -61 q 454 -138 454 -81 q 400 -227 454 -186 q 284 -268 347 -268 q 218 -261 256 -268 l 271 -189 q 328 -210 303 -210 q 388 -162 388 -210 q 294 -104 388 -110 l 354 -18 q 136 214 136 5 q 284 586 136 419 q 614 753 432 753 q 771 718 693 753 l 726 544 l 684 544 l 686 554 q 692 601 692 586 q 564 694 692 694 q 360 561 448 694 q 273 248 273 427 q 420 58 273 58 q 730 186 531 58 z "},"é":{"ha":752,"x_min":136,"x_max":793,"o":"m 730 185 l 720 133 q 353 -17 505 -17 q 196 51 256 -17 q 136 225 136 118 q 283 585 136 416 q 595 753 429 753 q 693 713 656 753 q 730 607 730 672 q 597 383 730 477 q 280 290 465 290 l 279 259 q 425 61 279 61 q 730 185 550 61 m 281 332 q 519 410 433 344 q 604 581 604 476 q 529 685 604 685 q 372 577 448 685 q 281 332 296 469 m 507 870 l 529 931 q 793 1113 620 1008 l 749 1004 q 507 870 580 920 z "},"è":{"ha":752,"x_min":136,"x_max":730,"o":"m 730 185 l 720 133 q 353 -17 505 -17 q 196 51 256 -17 q 136 225 136 118 q 283 585 136 416 q 595 753 429 753 q 693 713 656 753 q 730 607 730 672 q 597 383 730 477 q 280 290 465 290 l 279 259 q 425 61 279 61 q 730 185 550 61 m 281 332 q 519 410 433 344 q 604 581 604 476 q 529 685 604 685 q 372 577 448 685 q 281 332 296 469 m 714 924 l 629 870 q 488 1050 580 968 l 568 1113 q 714 924 652 1029 z "},"ê":{"ha":752,"x_min":136,"x_max":773,"o":"m 730 185 l 720 133 q 353 -17 505 -17 q 196 51 256 -17 q 136 225 136 118 q 283 585 136 416 q 595 753 429 753 q 693 713 656 753 q 730 607 730 672 q 597 383 730 477 q 280 290 465 290 l 279 259 q 425 61 279 61 q 730 185 550 61 m 281 332 q 519 410 433 344 q 604 581 604 476 q 529 685 604 685 q 372 577 448 685 q 281 332 296 469 m 773 919 l 690 870 q 606 1019 640 926 q 494 898 568 972 q 475 877 490 895 l 378 870 q 588 1055 524 977 l 680 1113 q 773 919 711 1007 z "},"ë":{"ha":752,"x_min":136,"x_max":857,"o":"m 730 185 l 720 133 q 353 -17 505 -17 q 196 51 256 -17 q 136 225 136 118 q 283 585 136 416 q 595 753 429 753 q 693 713 656 753 q 730 607 730 672 q 597 383 730 477 q 280 290 465 290 l 279 259 q 425 61 279 61 q 730 185 550 61 m 281 332 q 519 410 433 344 q 604 581 604 476 q 529 685 604 685 q 372 577 448 685 q 281 332 296 469 m 427 870 l 345 973 l 451 1054 l 532 945 l 427 870 m 752 870 l 669 975 l 776 1054 l 857 946 l 752 870 z "},"í":{"ha":523,"x_min":153,"x_max":646,"o":"m 601 205 l 589 142 q 322 -17 440 -17 q 224 85 224 -17 q 240 199 224 120 l 287 435 q 306 569 306 536 q 262 626 306 626 q 153 602 231 626 l 161 644 l 492 753 l 441 536 l 374 201 q 359 100 359 122 q 399 56 359 56 q 601 205 466 56 m 359 870 l 381 931 q 646 1113 472 1008 l 602 1004 q 359 870 432 920 z "},"ì":{"ha":523,"x_min":153,"x_max":601,"o":"m 601 205 l 589 142 q 322 -17 440 -17 q 224 85 224 -17 q 240 199 224 120 l 287 435 q 306 569 306 536 q 262 626 306 626 q 153 602 231 626 l 161 644 l 492 753 l 441 536 l 374 201 q 359 100 359 122 q 399 56 359 56 q 601 205 466 56 m 591 924 l 506 870 q 365 1050 457 968 l 446 1113 q 591 924 530 1029 z "},"î":{"ha":523,"x_min":153,"x_max":616,"o":"m 601 205 l 589 142 q 322 -17 440 -17 q 224 85 224 -17 q 240 199 224 120 l 287 435 q 306 569 306 536 q 262 626 306 626 q 153 602 231 626 l 161 644 l 492 753 l 441 536 l 374 201 q 359 100 359 122 q 399 56 359 56 q 601 205 466 56 m 616 919 l 534 870 q 449 1019 483 926 q 337 898 411 972 q 318 877 334 895 l 222 870 q 431 1055 368 977 l 524 1113 q 616 919 554 1007 z "},"ï":{"ha":523,"x_min":153,"x_max":692,"o":"m 601 205 l 589 142 q 322 -17 440 -17 q 224 85 224 -17 q 240 199 224 120 l 287 435 q 306 569 306 536 q 262 626 306 626 q 153 602 231 626 l 161 644 l 492 753 l 441 536 l 374 201 q 359 100 359 122 q 399 56 359 56 q 601 205 466 56 m 262 870 l 180 973 l 286 1054 l 367 945 l 262 870 m 587 870 l 505 975 l 611 1054 l 692 946 l 587 870 z "},"ñ":{"ha":987,"x_min":73,"x_max":1062,"o":"m 182 -8 l 233 201 l 299 536 q 315 637 315 614 q 275 680 315 680 q 73 531 208 680 l 85 593 q 351 753 233 753 q 449 651 449 753 q 433 536 449 616 l 400 368 l 410 368 q 602 647 495 542 q 801 753 709 753 q 912 629 912 753 q 901 532 912 589 l 835 201 q 819 99 819 122 q 859 56 819 56 q 1062 205 927 56 l 1049 142 q 783 -17 901 -17 q 685 85 685 -17 q 701 201 685 119 l 767 533 q 775 598 775 572 q 734 653 775 653 q 375 242 605 653 l 326 0 l 182 -8 m 534 880 l 487 870 q 539 985 498 941 q 637 1029 581 1029 q 724 998 670 1029 l 747 985 q 824 958 798 958 q 893 1025 863 958 l 938 1038 q 791 870 913 870 q 700 897 749 870 l 669 914 q 599 939 624 939 q 534 880 559 939 z "},"ó":{"ha":809,"x_min":136,"x_max":823,"o":"m 344 -17 q 196 53 255 -17 q 136 226 136 122 q 284 587 136 421 q 606 753 432 753 q 762 685 701 753 q 823 512 823 617 q 675 146 823 309 q 344 -17 527 -17 m 421 42 q 598 171 522 42 q 674 471 674 300 q 537 696 674 696 q 362 563 440 696 q 285 262 285 429 q 421 42 285 42 m 528 870 l 550 931 q 814 1113 641 1008 l 770 1004 q 528 870 601 920 z "},"ò":{"ha":809,"x_min":136,"x_max":823,"o":"m 344 -17 q 196 53 255 -17 q 136 226 136 122 q 284 587 136 421 q 606 753 432 753 q 762 685 701 753 q 823 512 823 617 q 675 146 823 309 q 344 -17 527 -17 m 421 42 q 598 171 522 42 q 674 471 674 300 q 537 696 674 696 q 362 563 440 696 q 285 262 285 429 q 421 42 285 42 m 760 924 l 675 870 q 534 1050 626 968 l 614 1113 q 760 924 699 1029 z "},"ô":{"ha":809,"x_min":136,"x_max":823,"o":"m 344 -17 q 196 53 255 -17 q 136 226 136 122 q 284 587 136 421 q 606 753 432 753 q 762 685 701 753 q 823 512 823 617 q 675 146 823 309 q 344 -17 527 -17 m 421 42 q 598 171 522 42 q 674 471 674 300 q 537 696 674 696 q 362 563 440 696 q 285 262 285 429 q 421 42 285 42 m 810 919 l 728 870 q 643 1019 677 926 q 531 898 605 972 q 512 877 528 895 l 416 870 q 625 1055 562 977 l 718 1113 q 810 919 748 1007 z "},"ö":{"ha":809,"x_min":136,"x_max":886,"o":"m 344 -17 q 196 53 255 -17 q 136 226 136 122 q 284 587 136 421 q 606 753 432 753 q 762 685 701 753 q 823 512 823 617 q 675 146 823 309 q 344 -17 527 -17 m 421 42 q 598 171 522 42 q 674 471 674 300 q 537 696 674 696 q 362 563 440 696 q 285 262 285 429 q 421 42 285 42 m 456 870 l 374 973 l 480 1054 l 561 945 l 456 870 m 781 870 l 699 975 l 805 1054 l 886 946 l 781 870 z "},"õ":{"ha":809,"x_min":136,"x_max":864,"o":"m 344 -17 q 196 53 255 -17 q 136 226 136 122 q 284 587 136 421 q 606 753 432 753 q 762 685 701 753 q 823 512 823 617 q 675 146 823 309 q 344 -17 527 -17 m 421 42 q 598 171 522 42 q 674 471 674 300 q 537 696 674 696 q 362 563 440 696 q 285 262 285 429 q 421 42 285 42 m 460 880 l 413 870 q 466 985 424 941 q 564 1029 507 1029 q 650 998 596 1029 l 673 985 q 750 958 724 958 q 819 1025 789 958 l 864 1038 q 718 870 840 870 q 626 897 675 870 l 595 914 q 525 939 550 939 q 460 880 485 939 z "},"ú":{"ha":968,"x_min":72,"x_max":1044,"o":"m 718 368 l 706 368 q 330 -17 513 -17 q 222 111 222 -17 q 233 203 222 148 l 298 536 q 314 637 314 614 q 274 680 314 680 q 72 531 208 680 l 84 593 q 351 753 232 753 q 449 651 449 753 q 433 536 449 617 l 366 202 q 357 138 357 157 q 397 83 357 83 q 552 207 448 83 q 742 493 655 330 l 791 736 l 935 745 l 884 536 l 818 201 q 802 99 802 123 q 842 56 802 56 q 1044 205 909 56 l 1032 142 q 766 -17 884 -17 q 667 85 667 -17 q 684 201 667 120 l 718 368 m 578 870 l 600 931 q 864 1113 690 1008 l 820 1004 q 578 870 650 920 z "},"ù":{"ha":968,"x_min":72,"x_max":1044,"o":"m 718 368 l 706 368 q 330 -17 513 -17 q 222 111 222 -17 q 233 203 222 148 l 298 536 q 314 637 314 614 q 274 680 314 680 q 72 531 208 680 l 84 593 q 351 753 232 753 q 449 651 449 753 q 433 536 449 617 l 366 202 q 357 138 357 157 q 397 83 357 83 q 552 207 448 83 q 742 493 655 330 l 791 736 l 935 745 l 884 536 l 818 201 q 802 99 802 123 q 842 56 802 56 q 1044 205 909 56 l 1032 142 q 766 -17 884 -17 q 667 85 667 -17 q 684 201 667 120 l 718 368 m 785 924 l 699 870 q 558 1050 650 968 l 639 1113 q 785 924 723 1029 z "},"û":{"ha":968,"x_min":72,"x_max":1044,"o":"m 718 368 l 706 368 q 330 -17 513 -17 q 222 111 222 -17 q 233 203 222 148 l 298 536 q 314 637 314 614 q 274 680 314 680 q 72 531 208 680 l 84 593 q 351 753 232 753 q 449 651 449 753 q 433 536 449 617 l 366 202 q 357 138 357 157 q 397 83 357 83 q 552 207 448 83 q 742 493 655 330 l 791 736 l 935 745 l 884 536 l 818 201 q 802 99 802 123 q 842 56 802 56 q 1044 205 909 56 l 1032 142 q 766 -17 884 -17 q 667 85 667 -17 q 684 201 667 120 l 718 368 m 844 919 l 761 870 q 676 1019 710 926 q 564 898 638 972 q 545 877 561 895 l 449 870 q 659 1055 595 977 l 751 1113 q 844 919 781 1007 z "},"ü":{"ha":968,"x_min":72,"x_max":1044,"o":"m 718 368 l 706 368 q 330 -17 513 -17 q 222 111 222 -17 q 233 203 222 148 l 298 536 q 314 637 314 614 q 274 680 314 680 q 72 531 208 680 l 84 593 q 351 753 232 753 q 449 651 449 753 q 433 536 449 617 l 366 202 q 357 138 357 157 q 397 83 357 83 q 552 207 448 83 q 742 493 655 330 l 791 736 l 935 745 l 884 536 l 818 201 q 802 99 802 123 q 842 56 802 56 q 1044 205 909 56 l 1032 142 q 766 -17 884 -17 q 667 85 667 -17 q 684 201 667 120 l 718 368 m 498 870 l 415 973 l 522 1054 l 602 945 l 498 870 m 823 870 l 740 975 l 846 1054 l 927 946 l 823 870 z "},"†":{"ha":878,"x_min":234,"x_max":886,"o":"m 327 -218 l 534 586 l 234 558 l 280 659 l 543 629 l 572 1004 l 711 1029 l 585 629 l 886 659 l 842 558 l 576 586 l 467 -201 l 327 -218 z "},"°":{"ha":385,"x_min":255,"x_max":489,"o":"m 372 795 q 289 829 323 795 q 255 912 255 863 q 289 995 255 961 q 372 1029 323 1029 q 455 995 421 1029 q 489 912 489 961 q 455 829 489 863 q 372 795 421 795 m 372 837 q 425 859 402 837 q 447 912 447 882 q 425 965 447 942 q 372 987 402 987 q 319 965 342 987 q 297 912 297 942 q 319 859 297 882 q 372 837 342 837 z "},"¢":{"ha":652,"x_min":134,"x_max":673,"o":"m 345 -17 l 380 166 q 134 334 134 184 q 228 504 134 432 q 464 586 322 575 l 497 753 l 539 753 l 506 586 q 673 566 600 582 l 649 444 l 607 444 q 608 460 607 450 q 610 487 610 480 q 498 545 610 539 l 432 215 q 622 264 534 215 l 612 215 q 422 166 512 166 l 386 -17 l 345 -17 m 391 219 l 456 545 q 256 361 256 515 q 391 219 256 240 z "},"£":{"ha":823,"x_min":16,"x_max":840,"o":"m 16 0 l 102 83 l 115 83 q 257 129 216 83 q 327 323 298 175 l 336 368 l 185 368 l 193 410 l 344 410 l 356 469 q 468 679 383 604 q 677 753 552 753 q 840 721 751 753 l 808 552 l 761 552 l 763 564 q 765 584 765 573 q 640 703 765 703 q 551 669 578 703 q 503 536 523 635 l 478 410 l 705 410 l 696 368 l 470 368 l 464 338 q 403 196 446 250 q 259 83 360 142 l 452 83 q 640 97 582 83 q 771 157 698 111 l 761 107 q 627 7 692 33 q 443 -18 562 -18 l 416 -18 l 16 0 z "},"§":{"ha":878,"x_min":101,"x_max":879,"o":"m 101 -144 l 219 -75 q 453 -168 328 -168 q 585 -120 532 -168 q 639 -4 639 -73 q 608 76 639 45 q 484 151 576 107 l 414 182 q 232 385 232 267 q 385 614 232 498 q 309 768 309 675 q 414 956 309 883 q 685 1029 519 1029 q 879 998 766 1029 l 845 828 l 804 828 q 807 863 807 851 q 614 979 807 979 q 471 930 527 979 q 416 804 416 881 q 439 729 416 752 q 577 646 463 707 l 635 614 q 804 418 804 522 q 662 189 804 301 q 755 37 755 128 q 645 -144 755 -71 q 374 -218 535 -218 q 101 -144 230 -218 m 628 215 q 704 372 704 300 q 592 497 704 442 l 526 530 q 419 588 467 559 q 334 430 334 513 q 447 307 334 360 l 538 263 q 628 215 572 248 z "},"•":{"ha":845,"x_min":397,"x_max":598,"o":"m 498 297 q 427 326 456 297 q 397 397 397 355 q 427 468 397 439 q 498 498 456 498 q 569 468 539 498 q 598 397 598 439 q 569 326 598 355 q 498 297 540 297 z "},"¶":{"ha":878,"x_min":227,"x_max":892,"o":"m 344 -226 l 481 467 q 227 704 227 510 q 327 911 227 825 q 592 1023 426 998 l 621 1171 l 663 1171 l 634 1023 l 662 1023 q 750 1017 701 1023 l 780 1171 l 822 1171 l 790 1008 q 892 976 839 995 l 884 931 q 781 964 846 947 l 699 552 q 819 605 748 568 l 808 552 q 689 499 747 517 l 545 -226 l 503 -226 l 644 484 q 524 467 562 467 l 386 -226 l 344 -226 m 654 535 l 741 972 q 663 980 695 980 q 625 978 651 980 l 534 521 q 654 535 589 521 z "},"ß":{"ha":838,"x_min":-329,"x_max":848,"o":"m -329 -433 l -231 -340 q -101 -368 -161 -368 q 48 -309 0 -368 q 129 -83 96 -250 l 280 677 q 450 1058 332 941 q 711 1188 579 1188 q 808 1150 768 1188 q 848 1057 848 1112 q 711 840 848 962 l 676 808 q 597 671 597 737 q 683 515 597 616 l 760 425 q 846 237 846 323 q 745 57 846 131 q 499 -17 644 -17 q 376 15 431 -17 l 457 109 q 612 50 526 50 q 709 88 668 50 q 750 177 750 126 q 661 341 750 244 l 609 397 q 472 627 472 547 q 566 777 472 707 l 619 815 l 639 831 q 718 999 718 897 q 621 1105 718 1105 q 449 855 499 1105 l 300 102 q 109 -317 241 -191 q -211 -452 -31 -452 q -329 -433 -265 -452 z "},"®":{"ha":845,"x_min":245,"x_max":848,"o":"m 547 418 q 334 507 422 418 q 245 720 245 595 q 334 932 245 844 q 547 1021 422 1021 q 760 932 672 1021 q 848 720 848 844 q 760 507 848 595 q 547 418 671 418 m 547 456 q 732 534 654 456 q 810 720 810 612 q 732 905 810 827 q 547 983 654 983 q 361 905 439 983 q 283 720 283 827 q 361 534 283 612 q 547 456 439 456 m 498 694 l 472 561 l 372 561 l 380 602 l 430 602 l 481 862 l 431 862 l 439 903 l 563 903 q 708 824 708 903 q 612 706 708 753 l 645 602 l 703 602 l 695 561 l 604 561 l 557 694 l 498 694 m 507 736 l 541 736 q 656 816 656 736 q 572 862 656 862 l 532 862 l 507 736 z "},"©":{"ha":1171,"x_min":157,"x_max":1211,"o":"m 684 -25 q 311 130 466 -25 q 157 502 157 284 q 311 874 157 720 q 684 1029 466 1029 q 1057 874 902 1029 q 1211 502 1211 720 q 1057 130 1211 284 q 684 -25 902 -25 m 684 17 q 1027 159 884 17 q 1169 502 1169 302 q 1027 845 1169 703 q 684 987 884 987 q 341 845 484 987 q 199 502 199 703 q 341 159 199 302 q 684 17 484 17 m 838 231 q 663 201 739 201 q 478 263 546 201 q 411 435 411 326 q 510 692 411 589 q 758 795 609 795 q 945 766 844 795 l 911 636 l 862 644 l 869 722 q 746 752 804 752 q 580 660 648 752 q 512 435 512 567 q 680 255 512 255 q 850 289 776 255 l 838 231 z "},"™":{"ha":1255,"x_min":212,"x_max":1396,"o":"m 414 962 l 289 962 l 271 870 l 212 870 l 239 1004 l 707 1004 l 681 870 l 623 870 l 640 962 l 515 962 l 430 536 l 522 536 l 514 494 l 229 494 l 238 536 l 330 536 l 414 962 m 952 536 l 888 901 l 807 494 l 648 494 l 656 536 l 748 536 l 833 962 l 741 962 l 749 1004 l 976 1004 l 1028 704 l 1192 1004 l 1396 1004 l 1388 962 l 1295 962 l 1211 536 l 1303 536 l 1294 494 l 1109 494 l 1196 928 l 981 536 l 952 536 z "},"´":{"ha":812,"x_min":522,"x_max":808,"o":"m 522 870 l 544 931 q 808 1113 635 1008 l 764 1004 q 522 870 595 920 z "},"¨":{"ha":812,"x_min":384,"x_max":896,"o":"m 467 870 l 384 973 l 490 1054 l 571 945 l 467 870 m 791 870 l 709 975 l 815 1054 l 896 946 l 791 870 z "},"≠":{"ha":878,"x_min":120,"x_max":918,"o":"m 120 247 l 135 322 l 421 322 l 546 481 l 167 481 l 182 556 l 604 556 l 719 707 l 802 707 l 689 556 l 918 556 l 903 481 l 631 481 l 508 322 l 871 322 l 857 247 l 449 247 l 334 96 l 247 96 l 361 247 l 120 247 z "},"Æ":{"ha":1603,"x_min":58,"x_max":1714,"o":"m 58 57 l 149 151 q 318 50 218 50 q 470 109 395 50 q 659 314 545 167 l 1128 921 q 901 945 1011 945 q 693 870 771 945 q 615 670 615 795 l 485 604 q 762 964 506 886 q 1246 1004 892 1004 l 1714 1004 l 1654 812 l 1611 812 q 1617 859 1617 839 q 1555 933 1617 913 q 1332 954 1493 954 l 1310 954 l 1232 552 l 1535 552 l 1466 482 q 1256 502 1311 502 l 1222 502 l 1162 206 q 1156 147 1156 170 q 1205 91 1156 106 q 1379 75 1254 75 q 1582 151 1482 75 l 1572 97 q 1362 -21 1455 -21 q 1320 -20 1347 -21 l 979 0 l 1042 314 l 723 314 l 629 191 q 458 22 534 70 q 279 -25 382 -25 q 58 57 151 -25 m 761 355 l 1050 355 l 1153 871 l 761 355 z "},"Ø":{"ha":1088,"x_min":159,"x_max":1127,"o":"m 229 -100 l 311 31 q 159 360 159 138 q 343 829 159 629 q 773 1029 527 1029 q 931 994 863 1029 l 1000 1105 l 1063 1105 l 977 968 q 1127 656 1127 863 q 951 177 1127 380 q 536 -25 775 -25 q 357 9 429 -25 l 288 -100 l 229 -100 m 365 114 l 887 926 q 718 987 817 987 q 546 916 633 987 q 399 726 459 844 q 314 322 314 557 q 365 114 314 203 m 923 883 l 399 75 q 538 21 470 21 q 849 207 723 21 q 976 663 976 393 q 923 883 976 793 z "},"∞":{"ha":1171,"x_min":158,"x_max":1180,"o":"m 644 336 q 342 117 488 117 q 210 175 262 117 q 158 326 158 234 q 255 573 158 460 q 469 686 353 686 q 595 636 545 686 q 700 460 646 587 q 999 686 870 686 q 1129 627 1078 686 q 1180 478 1180 568 q 1085 228 1180 339 q 872 117 991 117 q 747 164 795 117 q 644 336 698 211 m 622 372 q 429 583 526 583 q 294 500 357 583 q 231 323 231 418 q 268 222 231 261 q 362 182 304 182 q 622 372 487 182 m 722 425 q 909 214 819 214 q 1044 296 981 214 q 1108 469 1108 378 q 1071 574 1108 534 q 974 614 1034 614 q 722 425 859 614 z "},"±":{"ha":878,"x_min":71,"x_max":915,"o":"m 71 0 l 86 75 l 823 75 l 808 0 l 71 0 m 441 201 l 494 465 l 163 465 l 178 540 l 509 540 l 562 803 l 637 803 l 585 540 l 915 540 l 900 465 l 570 465 l 517 201 l 441 201 z "},"≤":{"ha":878,"x_min":71,"x_max":979,"o":"m 71 0 l 86 75 l 823 75 l 808 0 l 71 0 m 979 862 l 958 770 l 337 486 l 848 204 l 833 125 l 170 494 l 979 862 z "},"≥":{"ha":878,"x_min":71,"x_max":905,"o":"m 71 0 l 86 75 l 823 75 l 808 0 l 71 0 m 96 125 l 117 216 l 738 502 l 227 783 l 243 862 l 905 494 l 96 125 z "},"¥":{"ha":909,"x_min":100,"x_max":1036,"o":"m 146 0 l 233 94 q 262 92 254 92 q 450 243 391 92 l 256 243 l 264 284 l 460 284 q 469 385 466 326 l 283 385 l 292 427 l 469 427 q 470 442 470 438 q 437 594 470 534 q 353 654 404 654 q 236 601 304 654 q 130 479 168 548 l 100 503 q 253 683 162 612 q 425 753 345 753 q 576 488 576 753 l 576 445 q 915 753 694 753 q 1036 721 984 753 l 957 616 q 862 644 910 644 q 613 427 699 644 l 787 427 l 779 385 l 605 385 l 597 347 q 574 284 591 315 l 758 284 l 749 243 l 551 243 q 366 85 489 130 l 587 73 l 503 -17 l 146 0 z "},"µ":{"ha":935,"x_min":94,"x_max":1013,"o":"m 94 -284 l 146 -71 l 254 471 q 265 576 265 528 q 194 736 265 653 l 347 745 q 402 587 402 696 q 385 454 402 543 l 334 201 q 327 152 327 166 q 369 100 327 100 q 522 216 420 100 q 709 489 623 332 l 759 736 l 903 745 l 852 536 l 786 201 q 770 100 770 125 q 811 50 770 50 q 1013 205 878 50 l 1000 142 q 734 -17 852 -17 q 636 85 636 -17 q 652 201 636 121 l 685 368 l 675 368 q 294 0 487 0 l 240 -268 l 94 -284 z "},"∂":{"ha":878,"x_min":217,"x_max":826,"o":"m 250 877 q 532 1088 352 1088 q 749 964 671 1088 q 826 619 826 841 q 711 164 826 345 q 421 -17 595 -17 q 273 48 329 -17 q 217 219 217 113 q 334 538 217 391 q 588 686 452 686 q 784 570 700 686 q 488 970 784 970 q 250 877 363 970 m 780 510 q 597 648 706 648 q 420 536 496 648 q 343 279 343 425 q 379 128 343 186 q 474 70 416 70 q 671 197 583 70 q 780 510 760 323 z "},"∑":{"ha":903,"x_min":33,"x_max":946,"o":"m 33 0 l 132 100 q 201 108 172 100 q 477 376 293 132 l 591 527 l 279 877 l 365 1004 l 946 1004 l 888 799 l 843 799 l 846 813 q 850 849 850 833 q 791 933 850 913 q 552 954 732 954 l 397 954 l 731 574 l 487 296 q 288 102 349 140 l 608 86 q 667 84 638 84 q 884 147 789 84 l 874 100 q 727 -2 778 20 q 596 -25 677 -25 q 485 -22 563 -25 l 33 0 z "},"∏":{"ha":1246,"x_min":45,"x_max":1527,"o":"m 50 0 l 152 100 l 164 100 l 199 100 q 314 157 277 100 q 386 384 352 215 l 489 903 l 441 903 q 180 697 180 903 q 186 637 180 673 l 45 571 q 677 1004 107 1004 l 1155 1004 l 1277 1003 q 1497 1056 1439 1003 l 1527 1033 q 1392 931 1465 959 q 1190 903 1320 903 l 1150 903 l 1024 269 q 1006 113 1006 179 q 1068 42 1006 42 q 1131 47 1088 42 l 1121 0 l 851 -17 q 844 32 844 9 q 869 207 844 76 l 1008 903 l 631 903 l 537 431 q 463 229 512 303 q 309 89 413 155 l 570 83 l 476 -17 l 50 0 z "},"π":{"ha":1155,"x_min":112,"x_max":1184,"o":"m 233 -8 l 283 201 l 371 644 l 340 644 q 112 562 214 644 l 136 682 q 336 736 217 736 l 1184 736 l 1166 644 l 957 644 l 882 270 q 852 100 852 121 q 895 56 852 56 q 1103 203 979 56 l 1090 142 q 815 -17 950 -17 q 716 92 716 -17 q 751 287 716 111 l 823 644 l 505 644 l 375 0 l 233 -8 z "},"∫":{"ha":878,"x_min":158,"x_max":880,"o":"m 789 977 q 764 983 775 983 q 689 920 714 983 q 627 638 664 857 q 593 438 595 450 l 582 380 q 443 -66 520 69 q 248 -201 365 -201 q 158 -127 158 -201 q 184 -75 158 -99 q 239 -50 210 -50 q 287 -94 287 -50 q 252 -154 287 -122 q 273 -159 264 -159 q 354 -94 327 -159 q 416 186 382 -28 q 449 385 446 368 l 460 443 q 600 895 524 760 q 793 1029 677 1029 q 880 952 880 1029 q 855 896 880 922 q 800 870 830 870 q 756 918 756 870 q 789 977 756 951 z "},"ª":{"ha":669,"x_min":172,"x_max":806,"o":"m 806 679 l 791 610 q 587 486 672 486 q 508 571 508 486 q 523 675 508 614 l 543 753 l 515 753 q 391 561 463 636 q 260 485 319 485 q 172 622 172 485 q 279 905 172 774 q 556 1029 382 1029 q 713 1021 618 1029 l 667 833 l 639 694 q 623 592 623 609 q 650 559 623 559 q 806 679 699 559 m 559 882 l 573 946 q 465 972 517 972 q 334 884 387 972 q 281 663 281 795 q 321 590 281 590 q 559 882 387 590 z "},"º":{"ha":669,"x_min":220,"x_max":748,"o":"m 397 485 q 269 532 318 485 q 220 656 220 579 q 327 913 220 798 q 566 1029 435 1029 q 698 981 648 1029 q 748 856 748 934 q 640 600 748 714 q 397 485 532 485 m 445 535 q 566 628 511 535 q 621 836 621 722 q 522 979 621 979 q 401 888 454 979 q 347 683 347 797 q 445 535 347 535 z "},"Ω":{"ha":1165,"x_min":-14,"x_max":1166,"o":"m -3 -25 l -14 12 q 109 92 60 75 q 272 109 157 109 l 372 109 q 239 433 239 235 q 417 844 239 659 q 813 1029 595 1029 q 1070 933 973 1029 q 1166 682 1166 838 q 786 109 1166 317 l 869 109 l 965 108 q 1137 150 1079 108 l 1126 96 q 918 -17 1012 -17 q 843 -15 876 -17 l 604 0 l 694 109 q 925 324 830 157 q 1021 680 1021 490 q 955 901 1021 814 q 785 987 888 987 q 510 821 629 987 q 391 435 391 654 q 544 109 391 209 l 450 -8 l 137 -1 l 100 1 q -3 -25 56 1 z "},"æ":{"ha":1272,"x_min":125,"x_max":1251,"o":"m 667 368 l 655 368 q 471 91 578 198 q 269 -17 363 -17 q 125 165 125 -17 q 283 555 125 364 q 673 753 446 753 q 857 738 715 753 q 884 736 861 738 l 858 642 q 1113 753 995 753 q 1213 715 1175 753 q 1251 616 1251 677 q 1124 393 1251 481 q 791 296 997 304 l 791 264 q 941 64 791 64 q 1250 191 1047 64 l 1240 139 q 860 -18 1016 -18 q 709 52 770 -18 q 648 224 648 121 q 667 368 648 274 m 720 644 q 550 683 634 683 q 353 526 427 683 q 266 195 266 342 q 329 88 266 88 q 496 211 387 88 q 689 490 606 334 l 720 644 m 791 334 q 1031 413 943 347 q 1118 584 1118 480 q 1042 690 1118 690 q 885 580 962 690 q 791 334 808 471 z "},"ø":{"ha":809,"x_min":113,"x_max":847,"o":"m 168 -100 l 113 -100 l 213 35 q 138 223 138 115 q 285 586 138 418 q 603 753 432 753 q 715 724 663 753 l 796 837 l 847 837 l 749 702 q 823 514 823 612 q 676 147 823 311 q 346 -17 529 -17 q 247 9 302 -17 l 168 -100 m 291 142 l 649 635 q 543 696 615 696 q 359 558 441 696 q 277 249 277 420 q 291 142 277 209 m 669 591 l 311 97 q 414 37 347 37 q 601 172 517 37 q 685 472 685 307 q 669 591 685 522 z "},"¿":{"ha":694,"x_min":60,"x_max":618,"o":"m 618 654 l 510 569 l 429 681 l 535 753 l 618 654 m 554 473 q 395 234 541 359 l 368 210 q 206 -86 206 73 q 247 -205 206 -160 q 353 -251 288 -251 q 549 -83 507 -251 l 591 -83 l 559 -244 q 310 -293 418 -293 q 129 -242 197 -293 q 60 -109 60 -192 q 201 123 60 3 l 273 183 q 415 415 388 281 l 419 434 l 554 473 z "},"¡":{"ha":351,"x_min":68,"x_max":412,"o":"m 412 650 l 307 569 l 227 678 l 332 753 l 412 650 m 306 474 l 247 -64 l 207 -268 l 68 -293 l 113 -64 l 269 462 l 306 474 z "},"¬":{"ha":878,"x_min":167,"x_max":918,"o":"m 167 481 l 182 556 l 918 556 l 854 234 l 766 234 l 815 481 l 167 481 z "},"√":{"ha":987,"x_min":229,"x_max":1333,"o":"m 244 257 l 229 293 l 431 399 l 613 -134 l 1289 1105 l 1333 1105 l 621 -201 l 551 -201 l 372 322 l 244 257 z "},"ƒ":{"ha":639,"x_min":102,"x_max":810,"o":"m 149 -218 l 197 -17 l 269 343 l 102 343 l 110 385 l 277 385 l 281 402 q 436 652 311 552 q 718 753 562 753 q 810 739 770 753 l 720 638 q 606 686 671 686 q 431 482 471 686 l 411 385 l 587 385 l 578 343 l 403 343 l 295 -201 l 149 -218 z "},"≈":{"ha":878,"x_min":103,"x_max":936,"o":"m 103 159 q 325 389 162 389 q 488 326 376 389 l 563 282 q 704 228 656 228 q 838 359 781 228 l 880 359 q 656 138 814 138 q 496 194 593 138 l 421 237 q 279 298 316 298 q 145 159 201 298 l 103 159 m 159 444 q 381 673 218 673 q 544 610 433 673 l 620 566 q 761 513 713 513 q 894 644 838 513 l 936 644 q 713 422 869 422 q 552 478 649 422 l 477 521 q 336 583 373 583 q 201 444 257 583 l 159 444 z "},"∆":{"ha":1139,"x_min":7,"x_max":1089,"o":"m 7 0 l 127 125 q 156 122 146 122 q 411 417 245 122 l 741 1004 l 868 1029 l 909 803 l 1006 363 q 1089 91 1041 205 l 985 -17 l 7 0 m 254 123 l 916 107 l 743 878 l 425 339 q 254 123 340 194 z "},"«":{"ha":795,"x_min":154,"x_max":824,"o":"m 349 67 q 154 368 282 223 q 408 616 333 477 l 549 669 q 292 415 501 555 q 466 130 394 292 l 349 67 m 625 67 q 429 368 547 249 q 684 620 616 497 l 824 669 q 568 419 776 557 q 741 134 669 298 l 625 67 z "},"»":{"ha":795,"x_min":117,"x_max":787,"o":"m 592 669 q 787 368 660 513 q 533 121 609 260 l 393 67 q 649 321 440 180 q 475 606 548 443 l 592 669 m 317 669 q 512 368 394 487 q 258 117 325 239 l 117 67 q 374 317 165 180 q 200 602 273 439 l 317 669 z "},"…":{"ha":1389,"x_min":168,"x_max":1249,"o":"m 168 0 l 194 134 l 328 134 l 301 0 l 168 0 m 628 0 l 654 134 l 788 134 l 762 0 l 628 0 m 1088 0 l 1114 134 l 1249 134 l 1221 0 l 1088 0 z "}," ":{"ha":922,"x_min":0,"x_max":0,"o":""},"À":{"ha":1354,"x_min":62,"x_max":1427,"o":"m 62 57 l 153 149 q 322 50 218 50 q 510 133 422 50 q 720 428 597 216 l 1012 932 q 885 941 938 941 q 666 870 743 941 q 589 668 589 800 l 456 602 q 528 813 469 730 q 680 945 592 906 q 933 996 767 985 q 1034 1004 966 998 l 1172 1029 l 1181 803 l 1220 334 q 1258 119 1234 171 q 1348 67 1283 67 q 1427 71 1359 67 l 1418 26 l 1107 -25 l 1079 309 l 709 309 q 507 49 602 123 q 279 -25 411 -25 q 62 57 153 -25 m 739 359 l 1074 359 l 1031 869 l 739 359 m 1185 1141 l 1100 1088 q 959 1268 1051 1186 l 1040 1331 q 1185 1141 1124 1246 z "},"Ã":{"ha":1354,"x_min":62,"x_max":1427,"o":"m 62 57 l 153 149 q 322 50 218 50 q 510 133 422 50 q 720 428 597 216 l 1012 932 q 885 941 938 941 q 666 870 743 941 q 589 668 589 800 l 456 602 q 528 813 469 730 q 680 945 592 906 q 933 996 767 985 q 1034 1004 966 998 l 1172 1029 l 1181 803 l 1220 334 q 1258 119 1234 171 q 1348 67 1283 67 q 1427 71 1359 67 l 1418 26 l 1107 -25 l 1079 309 l 709 309 q 507 49 602 123 q 279 -25 411 -25 q 62 57 153 -25 m 739 359 l 1074 359 l 1031 869 l 739 359 m 894 1097 l 846 1088 q 899 1203 857 1159 q 997 1246 941 1246 q 1084 1216 1029 1246 l 1107 1203 q 1183 1175 1157 1175 q 1253 1242 1222 1175 l 1297 1255 q 1151 1088 1273 1088 q 1059 1114 1108 1088 l 1028 1132 q 958 1156 983 1156 q 894 1097 918 1156 z "},"Õ":{"ha":1088,"x_min":157,"x_max":1126,"o":"m 519 -25 q 255 79 352 -25 q 157 360 157 182 q 341 828 157 627 q 767 1029 524 1029 q 1029 927 932 1029 q 1126 650 1126 825 q 947 174 1126 372 q 519 -25 768 -25 m 545 21 q 848 208 722 21 q 974 655 974 394 q 744 986 974 986 q 441 802 568 986 q 314 359 314 617 q 545 21 314 21 m 635 1097 l 587 1088 q 640 1203 598 1159 q 738 1246 682 1246 q 825 1216 770 1246 l 848 1203 q 924 1175 898 1175 q 994 1242 963 1175 l 1038 1255 q 892 1088 1014 1088 q 800 1114 849 1088 l 769 1132 q 699 1156 724 1156 q 635 1097 659 1156 z "},"Œ":{"ha":1391,"x_min":157,"x_max":1501,"o":"m 769 0 l 783 66 q 517 -25 669 -25 q 253 77 349 -25 q 157 356 157 178 q 337 825 157 622 q 753 1029 517 1029 q 958 949 877 1029 l 969 1004 l 1501 1004 l 1440 812 l 1398 812 q 1404 859 1404 839 q 1342 933 1404 913 q 1118 954 1280 954 l 1097 954 l 1019 552 l 1321 552 l 1252 482 q 1042 502 1098 502 l 1008 502 l 953 205 q 943 146 943 157 q 1157 75 943 75 q 1369 151 1270 75 l 1358 97 q 1133 -21 1241 -21 q 1094 -20 1115 -21 l 769 0 m 837 340 l 905 681 q 917 792 917 740 q 863 933 917 879 q 724 987 810 987 q 439 795 569 987 q 310 372 310 603 q 374 111 310 205 q 551 16 437 16 q 837 340 770 16 z "},"œ":{"ha":1272,"x_min":136,"x_max":1251,"o":"m 665 136 q 349 -17 503 -17 q 197 52 257 -17 q 136 223 136 120 q 285 587 136 422 q 612 753 433 753 q 809 593 748 753 q 1114 753 966 753 q 1212 714 1174 753 q 1251 613 1251 675 q 1124 390 1251 479 q 791 293 997 302 l 791 262 q 940 62 791 62 q 1250 189 1048 62 l 1240 137 q 864 -17 1020 -17 q 665 136 713 -17 m 406 33 q 599 168 513 33 q 686 471 686 303 q 649 633 686 572 q 550 694 612 694 q 360 559 444 694 q 275 256 275 425 q 406 33 275 33 m 795 334 q 1034 413 946 347 q 1122 584 1122 480 q 1045 690 1122 690 q 887 580 964 690 q 795 334 810 470 z "},"–":{"ha":694,"x_min":144,"x_max":713,"o":"m 144 368 l 161 452 l 713 452 l 696 368 l 144 368 z "},"—":{"ha":1389,"x_min":140,"x_max":1409,"o":"m 140 368 l 154 435 l 1409 435 l 1395 368 l 140 368 z "},"“":{"ha":644,"x_min":265,"x_max":804,"o":"m 747 903 l 640 820 l 558 930 q 804 1188 578 1188 l 775 1146 q 663 1006 677 1127 l 747 903 m 454 903 l 347 820 l 265 930 q 511 1188 285 1188 l 482 1146 q 371 1006 383 1127 l 454 903 z "},"”":{"ha":644,"x_min":232,"x_max":770,"o":"m 289 1107 l 396 1188 l 478 1081 q 232 820 458 820 l 260 862 q 372 1005 359 882 l 289 1107 m 581 1107 l 689 1188 l 770 1081 q 525 820 751 820 l 553 862 q 665 1005 652 882 l 581 1107 z "},"‘":{"ha":351,"x_min":265,"x_max":511,"o":"m 454 903 l 347 820 l 265 930 q 511 1188 285 1188 l 482 1146 q 371 1006 383 1127 l 454 903 z "},"’":{"ha":351,"x_min":231,"x_max":477,"o":"m 288 1107 l 395 1188 l 477 1081 q 231 820 457 820 l 260 862 q 372 1005 359 882 l 288 1107 z "},"÷":{"ha":878,"x_min":144,"x_max":895,"o":"m 389 63 l 414 189 l 540 189 l 515 63 l 389 63 m 144 364 l 159 439 l 895 439 l 880 364 l 144 364 m 499 615 l 524 741 l 650 741 l 625 615 l 499 615 z "},"◊":{"ha":878,"x_min":144,"x_max":881,"o":"m 439 0 l 144 368 l 586 736 l 881 368 l 439 0 m 461 108 l 780 368 l 564 627 l 252 368 l 461 108 z "},"ÿ":{"ha":963,"x_min":104,"x_max":985,"o":"m 167 -432 l 260 -337 q 404 -376 328 -376 q 551 -309 498 -376 q 646 -65 604 -242 l 751 368 l 743 368 q 581 103 663 207 q 452 0 499 0 q 377 53 402 0 q 334 251 353 106 l 302 515 q 240 661 283 661 q 104 543 198 661 l 117 612 q 319 753 224 753 q 396 704 373 753 q 439 498 419 655 l 468 272 q 519 151 484 151 q 638 268 562 151 q 789 519 652 290 l 841 736 l 985 745 l 925 533 l 806 51 q 614 -323 746 -194 q 291 -452 482 -452 q 167 -432 218 -452 m 509 870 l 427 973 l 533 1054 l 614 945 l 509 870 m 834 870 l 751 975 l 858 1054 l 939 946 l 834 870 z "},"Ÿ":{"ha":1137,"x_min":193,"x_max":1197,"o":"m 273 -223 l 366 -134 q 558 -230 446 -230 q 812 102 730 -230 l 869 331 q 572 38 688 38 q 464 237 479 38 l 424 742 q 335 945 408 945 q 193 865 283 945 l 204 920 q 392 1029 314 1029 q 516 947 475 1029 q 573 673 558 865 l 601 301 q 654 168 611 168 q 759 245 688 168 q 896 433 830 323 l 1040 1004 l 1197 1017 l 1135 803 l 1002 271 q 493 -284 864 -284 q 273 -223 377 -284 m 673 1088 l 591 1191 l 697 1272 l 778 1162 l 673 1088 m 998 1088 l 916 1193 l 1022 1272 l 1103 1164 l 998 1088 z "},"∕":{"ha":50,"x_min":-402,"x_max":652,"o":"m -402 -25 l 559 1029 l 652 1029 l -310 -25 l -402 -25 z "},"¤":{"ha":878,"x_min":113,"x_max":960,"o":"m 724 304 l 828 174 l 793 144 l 689 275 q 475 201 581 201 q 292 275 371 201 l 136 144 l 113 174 l 269 304 q 229 443 229 374 q 348 700 229 577 l 244 831 l 279 860 l 383 730 q 597 803 491 803 q 780 730 701 803 l 936 860 l 960 831 l 803 700 q 844 562 844 629 q 724 304 844 429 m 770 545 q 718 680 770 627 q 584 732 665 732 q 388 648 473 732 q 302 457 302 564 q 355 324 302 376 q 489 272 408 272 q 684 356 598 272 q 770 545 770 439 z "},"‹":{"ha":527,"x_min":158,"x_max":553,"o":"m 353 67 q 158 368 286 223 q 412 616 337 477 l 553 669 q 296 415 505 555 q 470 130 398 292 l 353 67 z "},"›":{"ha":527,"x_min":120,"x_max":515,"o":"m 319 669 q 515 368 387 513 q 260 121 336 259 l 120 67 q 376 321 168 181 q 203 606 276 442 l 319 669 z "},"":{"ha":959,"x_min":-289,"x_max":1042,"o":"m -289 -443 l -192 -342 q -59 -368 -127 -368 q 91 -302 38 -368 q 169 -85 143 -237 l 299 686 l 147 686 l 195 736 l 309 736 q 489 1065 352 942 q 813 1188 627 1188 q 922 1177 872 1188 l 825 1074 q 696 1113 763 1113 q 545 1053 595 1113 q 464 833 496 994 l 444 736 l 699 736 l 933 753 l 882 536 l 815 201 q 800 99 800 123 q 840 56 800 56 q 1042 205 907 56 l 1029 142 q 763 -17 882 -17 q 665 85 665 -17 q 681 201 665 120 l 743 510 q 756 614 756 580 q 626 686 756 686 l 435 686 l 336 103 q 157 -307 291 -163 q -178 -452 24 -452 q -289 -443 -231 -452 m 794 871 l 839 963 l 1031 1088 l 972 963 l 794 871 z "},"":{"ha":971,"x_min":-289,"x_max":1415,"o":"m -289 -440 l -191 -342 q -58 -368 -125 -368 q 92 -302 39 -368 q 170 -85 144 -237 l 300 686 l 148 686 l 196 736 l 311 736 q 494 1032 356 918 q 808 1146 632 1146 q 1014 1100 899 1146 q 1293 1188 1143 1188 q 1415 1177 1353 1188 l 1324 1083 q 1187 1121 1245 1121 q 1023 1037 1082 1121 q 922 745 964 953 l 814 201 q 798 99 798 123 q 838 56 798 56 q 1041 205 906 56 l 1028 142 q 762 -17 880 -17 q 664 85 664 -17 q 680 201 664 120 l 769 648 q 920 1015 821 905 q 727 1079 823 1079 q 547 1017 606 1079 q 455 792 488 955 l 444 736 l 697 736 l 643 679 q 469 686 553 686 l 434 686 l 336 106 q 158 -306 292 -159 q -175 -452 24 -452 q -289 -440 -229 -452 z "},"‡":{"ha":878,"x_min":152,"x_max":886,"o":"m 329 -218 l 453 174 l 152 145 l 199 245 l 461 216 l 534 581 l 233 552 l 280 652 l 542 622 l 573 1004 l 713 1029 l 584 622 l 886 652 l 838 552 l 576 581 l 503 216 l 805 245 l 757 145 l 494 174 l 469 -201 l 329 -218 z "},"∙":{"ha":878,"x_min":434,"x_max":604,"o":"m 434 330 l 463 473 l 604 473 l 576 330 l 434 330 z "},"‚":{"ha":393,"x_min":34,"x_max":332,"o":"m 98 120 l 233 218 l 332 85 q 247 -126 325 -52 q 34 -201 170 -201 l 72 -159 q 199 -17 178 -149 l 98 120 z "},"„":{"ha":644,"x_min":28,"x_max":567,"o":"m 85 86 l 193 168 l 275 60 q 28 -201 254 -201 l 57 -159 q 169 -16 156 -139 l 85 86 m 378 86 l 486 168 l 567 60 q 321 -201 548 -201 l 350 -159 q 462 -16 448 -139 l 378 86 z "},"‰":{"ha":1480,"x_min":123,"x_max":1561,"o":"m 363 502 q 240 551 286 502 q 193 680 193 600 q 270 909 193 814 q 455 1004 347 1004 q 582 956 534 1004 q 629 825 629 907 q 551 596 629 690 q 363 502 474 502 m 293 674 q 375 544 293 544 q 487 632 437 544 q 537 830 537 720 q 455 963 537 963 q 342 874 392 963 q 293 674 293 786 m 800 0 q 677 49 724 0 q 631 178 631 98 q 707 407 631 312 q 892 502 784 502 q 1019 454 972 502 q 1066 323 1066 406 q 989 94 1066 188 q 800 0 911 0 m 730 171 q 812 41 730 41 q 925 130 875 41 q 975 328 975 218 q 892 461 975 461 q 780 373 829 461 q 730 171 730 284 m 123 -25 l 1047 1029 l 1136 1029 l 212 -25 l 123 -25 m 1296 0 q 1173 49 1219 0 q 1126 178 1126 98 q 1202 407 1126 312 q 1388 502 1279 502 q 1514 454 1467 502 q 1561 323 1561 406 q 1484 94 1561 188 q 1296 0 1407 0 m 1225 172 q 1308 41 1225 41 q 1419 130 1369 41 q 1470 328 1470 218 q 1388 461 1470 461 q 1275 373 1324 461 q 1225 172 1225 284 z "},"Â":{"ha":1354,"x_min":62,"x_max":1427,"o":"m 62 57 l 153 149 q 322 50 218 50 q 510 133 422 50 q 720 428 597 216 l 1012 932 q 885 941 938 941 q 666 870 743 941 q 589 668 589 800 l 456 602 q 528 813 469 730 q 680 945 592 906 q 933 996 767 985 q 1034 1004 966 998 l 1172 1029 l 1181 803 l 1220 334 q 1258 119 1234 171 q 1348 67 1283 67 q 1427 71 1359 67 l 1418 26 l 1107 -25 l 1079 309 l 709 309 q 507 49 602 123 q 279 -25 411 -25 q 62 57 153 -25 m 739 359 l 1074 359 l 1031 869 l 739 359 m 1261 1137 l 1178 1088 q 1093 1236 1127 1144 q 981 1116 1055 1190 q 962 1095 978 1112 l 866 1088 q 1076 1272 1012 1194 l 1168 1331 q 1261 1137 1198 1225 z "},"Ê":{"ha":1021,"x_min":142,"x_max":1132,"o":"m 142 0 l 243 100 l 254 100 q 396 143 357 100 q 464 331 435 186 l 587 951 q 361 876 448 951 q 275 680 275 801 l 275 665 l 144 602 q 305 905 161 807 q 733 1004 450 1004 l 1132 1004 l 1072 812 l 1029 812 q 1034 859 1034 838 q 973 933 1034 913 q 749 954 911 954 l 728 954 l 650 552 l 952 552 l 883 482 q 673 502 729 502 l 640 502 l 625 429 q 553 233 602 305 q 397 90 505 161 l 723 77 l 794 75 q 1001 151 905 75 l 990 96 q 764 -25 870 -25 l 733 -24 l 142 0 m 1045 1137 l 962 1088 q 878 1236 911 1144 q 766 1116 840 1190 q 747 1095 762 1112 l 650 1088 q 860 1272 796 1194 l 952 1331 q 1045 1137 983 1225 z "},"Á":{"ha":1354,"x_min":62,"x_max":1427,"o":"m 62 57 l 153 149 q 322 50 218 50 q 510 133 422 50 q 720 428 597 216 l 1012 932 q 885 941 938 941 q 666 870 743 941 q 589 668 589 800 l 456 602 q 528 813 469 730 q 680 945 592 906 q 933 996 767 985 q 1034 1004 966 998 l 1172 1029 l 1181 803 l 1220 334 q 1258 119 1234 171 q 1348 67 1283 67 q 1427 71 1359 67 l 1418 26 l 1107 -25 l 1079 309 l 709 309 q 507 49 602 123 q 279 -25 411 -25 q 62 57 153 -25 m 739 359 l 1074 359 l 1031 869 l 739 359 m 1021 1088 l 1042 1149 q 1307 1331 1133 1225 l 1263 1222 q 1021 1088 1093 1137 z "},"Ë":{"ha":1021,"x_min":142,"x_max":1132,"o":"m 142 0 l 243 100 l 254 100 q 396 143 357 100 q 464 331 435 186 l 587 951 q 361 876 448 951 q 275 680 275 801 l 275 665 l 144 602 q 305 905 161 807 q 733 1004 450 1004 l 1132 1004 l 1072 812 l 1029 812 q 1034 859 1034 838 q 973 933 1034 913 q 749 954 911 954 l 728 954 l 650 552 l 952 552 l 883 482 q 673 502 729 502 l 640 502 l 625 429 q 553 233 602 305 q 397 90 505 161 l 723 77 l 794 75 q 1001 151 905 75 l 990 96 q 764 -25 870 -25 l 733 -24 l 142 0 m 674 1088 l 591 1191 l 698 1272 l 779 1162 l 674 1088 m 999 1088 l 916 1193 l 1023 1272 l 1103 1164 l 999 1088 z "},"È":{"ha":1021,"x_min":142,"x_max":1132,"o":"m 142 0 l 243 100 l 254 100 q 396 143 357 100 q 464 331 435 186 l 587 951 q 361 876 448 951 q 275 680 275 801 l 275 665 l 144 602 q 305 905 161 807 q 733 1004 450 1004 l 1132 1004 l 1072 812 l 1029 812 q 1034 859 1034 838 q 973 933 1034 913 q 749 954 911 954 l 728 954 l 650 552 l 952 552 l 883 482 q 673 502 729 502 l 640 502 l 625 429 q 553 233 602 305 q 397 90 505 161 l 723 77 l 794 75 q 1001 151 905 75 l 990 96 q 764 -25 870 -25 l 733 -24 l 142 0 m 961 1141 l 876 1088 q 734 1268 827 1186 l 815 1331 q 961 1141 899 1246 z "},"Í":{"ha":627,"x_min":8,"x_max":802,"o":"m 8 0 l 110 100 l 155 100 q 270 151 233 100 q 336 350 307 201 l 446 903 l 262 903 l 361 1004 l 802 1004 l 699 903 l 589 903 l 493 423 q 265 90 449 203 l 529 83 l 431 -17 l 8 0 m 481 1088 l 503 1149 q 767 1331 593 1225 l 723 1222 q 481 1088 553 1137 z "},"Î":{"ha":627,"x_min":8,"x_max":802,"o":"m 8 0 l 110 100 l 155 100 q 270 151 233 100 q 336 350 307 201 l 446 903 l 262 903 l 361 1004 l 802 1004 l 699 903 l 589 903 l 493 423 q 265 90 449 203 l 529 83 l 431 -17 l 8 0 m 763 1137 l 680 1088 q 595 1236 629 1144 q 484 1116 557 1190 q 465 1095 480 1112 l 368 1088 q 578 1272 514 1194 l 670 1331 q 763 1137 701 1225 z "},"Ï":{"ha":627,"x_min":8,"x_max":830,"o":"m 8 0 l 110 100 l 155 100 q 270 151 233 100 q 336 350 307 201 l 446 903 l 262 903 l 361 1004 l 802 1004 l 699 903 l 589 903 l 493 423 q 265 90 449 203 l 529 83 l 431 -17 l 8 0 m 401 1088 l 318 1191 l 425 1272 l 505 1162 l 401 1088 m 726 1088 l 643 1193 l 749 1272 l 830 1164 l 726 1088 z "},"Ì":{"ha":627,"x_min":8,"x_max":802,"o":"m 8 0 l 110 100 l 155 100 q 270 151 233 100 q 336 350 307 201 l 446 903 l 262 903 l 361 1004 l 802 1004 l 699 903 l 589 903 l 493 423 q 265 90 449 203 l 529 83 l 431 -17 l 8 0 m 712 1141 l 627 1088 q 486 1268 578 1186 l 566 1331 q 712 1141 650 1246 z "},"Ó":{"ha":1088,"x_min":157,"x_max":1126,"o":"m 519 -25 q 255 79 352 -25 q 157 360 157 182 q 341 828 157 627 q 767 1029 524 1029 q 1029 927 932 1029 q 1126 650 1126 825 q 947 174 1126 372 q 519 -25 768 -25 m 545 21 q 848 208 722 21 q 974 655 974 394 q 744 986 974 986 q 441 802 568 986 q 314 359 314 617 q 545 21 314 21 m 686 1088 l 707 1149 q 972 1331 798 1225 l 928 1222 q 686 1088 758 1137 z "},"Ô":{"ha":1088,"x_min":157,"x_max":1126,"o":"m 519 -25 q 255 79 352 -25 q 157 360 157 182 q 341 828 157 627 q 767 1029 524 1029 q 1029 927 932 1029 q 1126 650 1126 825 q 947 174 1126 372 q 519 -25 768 -25 m 545 21 q 848 208 722 21 q 974 655 974 394 q 744 986 974 986 q 441 802 568 986 q 314 359 314 617 q 545 21 314 21 m 968 1137 l 885 1088 q 800 1236 834 1144 q 688 1116 762 1190 q 669 1095 685 1112 l 573 1088 q 783 1272 719 1194 l 875 1331 q 968 1137 905 1225 z "},"Ò":{"ha":1088,"x_min":157,"x_max":1126,"o":"m 519 -25 q 255 79 352 -25 q 157 360 157 182 q 341 828 157 627 q 767 1029 524 1029 q 1029 927 932 1029 q 1126 650 1126 825 q 947 174 1126 372 q 519 -25 768 -25 m 545 21 q 848 208 722 21 q 974 655 974 394 q 744 986 974 986 q 441 802 568 986 q 314 359 314 617 q 545 21 314 21 m 926 1141 l 840 1088 q 699 1268 791 1186 l 780 1331 q 926 1141 864 1246 z "},"Ú":{"ha":1356,"x_min":140,"x_max":1345,"o":"m 987 -25 l 1029 184 q 707 -25 879 -25 q 515 59 587 -25 q 444 283 444 142 q 485 568 444 370 q 581 941 526 766 q 532 947 546 947 q 346 867 420 947 q 271 669 271 787 l 140 604 q 690 1004 170 1004 l 739 1004 q 633 598 677 810 q 589 286 589 387 q 633 114 589 176 q 754 52 676 52 q 916 122 836 52 q 1055 318 996 193 l 1192 1004 l 1345 1021 l 1294 803 l 1197 317 q 1171 144 1171 184 q 1261 71 1171 71 q 1342 78 1293 71 l 1333 35 l 987 -25 m 869 1088 l 891 1149 q 1156 1331 982 1225 l 1112 1222 q 869 1088 942 1137 z "},"Û":{"ha":1356,"x_min":140,"x_max":1345,"o":"m 987 -25 l 1029 184 q 707 -25 879 -25 q 515 59 587 -25 q 444 283 444 142 q 485 568 444 370 q 581 941 526 766 q 532 947 546 947 q 346 867 420 947 q 271 669 271 787 l 140 604 q 690 1004 170 1004 l 739 1004 q 633 598 677 810 q 589 286 589 387 q 633 114 589 176 q 754 52 676 52 q 916 122 836 52 q 1055 318 996 193 l 1192 1004 l 1345 1021 l 1294 803 l 1197 317 q 1171 144 1171 184 q 1261 71 1171 71 q 1342 78 1293 71 l 1333 35 l 987 -25 m 1168 1137 l 1086 1088 q 1001 1236 1035 1144 q 889 1116 963 1190 q 870 1095 886 1112 l 774 1088 q 983 1272 920 1194 l 1076 1331 q 1168 1137 1106 1225 z "},"Ù":{"ha":1356,"x_min":140,"x_max":1345,"o":"m 987 -25 l 1029 184 q 707 -25 879 -25 q 515 59 587 -25 q 444 283 444 142 q 485 568 444 370 q 581 941 526 766 q 532 947 546 947 q 346 867 420 947 q 271 669 271 787 l 140 604 q 690 1004 170 1004 l 739 1004 q 633 598 677 810 q 589 286 589 387 q 633 114 589 176 q 754 52 676 52 q 916 122 836 52 q 1055 318 996 193 l 1192 1004 l 1345 1021 l 1294 803 l 1197 317 q 1171 144 1171 184 q 1261 71 1171 71 q 1342 78 1293 71 l 1333 35 l 987 -25 m 1068 1141 l 983 1088 q 842 1268 934 1186 l 922 1331 q 1068 1141 1006 1246 z "},"ı":{"ha":523,"x_min":153,"x_max":601,"o":"m 601 205 l 589 142 q 322 -17 440 -17 q 224 85 224 -17 q 240 199 224 120 l 287 435 q 306 569 306 536 q 262 626 306 626 q 153 602 231 626 l 161 644 l 492 753 l 441 536 l 374 201 q 359 100 359 122 q 399 56 359 56 q 601 205 466 56 z "},"ˆ":{"ha":812,"x_min":425,"x_max":820,"o":"m 820 919 l 737 870 q 652 1019 686 926 q 541 898 614 972 q 522 877 537 895 l 425 870 q 635 1055 571 977 l 727 1113 q 820 919 758 1007 z "},"˜":{"ha":812,"x_min":402,"x_max":853,"o":"m 450 880 l 402 870 q 455 985 413 941 q 553 1029 496 1029 q 640 998 585 1029 l 663 985 q 739 958 713 958 q 808 1025 778 958 l 853 1038 q 707 870 829 870 q 615 897 664 870 l 584 914 q 514 939 539 939 q 450 880 474 939 z "},"ˉ":{"ha":812,"x_min":409,"x_max":847,"o":"m 409 870 l 461 954 l 847 954 l 798 870 l 409 870 z "},"˘":{"ha":812,"x_min":482,"x_max":842,"o":"m 486 1049 l 601 1113 q 585 1017 585 1059 q 657 918 585 918 q 767 1073 751 918 l 842 1113 q 757 934 822 998 q 594 870 692 870 q 482 998 482 870 q 486 1049 482 1018 z "},"˙":{"ha":812,"x_min":551,"x_max":743,"o":"m 637 870 l 551 969 l 661 1054 l 743 945 l 637 870 z "},"˚":{"ha":778,"x_min":495,"x_max":713,"o":"m 604 870 q 527 902 559 870 q 495 979 495 934 q 527 1056 495 1024 q 604 1088 559 1088 q 681 1056 649 1088 q 713 979 713 1024 q 681 902 713 934 q 604 870 649 870 m 604 912 q 651 931 631 912 q 671 979 671 951 q 651 1026 671 1007 q 604 1046 631 1046 q 556 1026 576 1046 q 536 979 536 1006 q 556 931 536 951 q 604 912 576 912 z "},"¸":{"ha":812,"x_min":223,"x_max":457,"o":"m 430 0 l 390 -60 q 457 -138 457 -81 q 404 -227 457 -186 q 286 -268 350 -268 q 223 -261 256 -268 l 275 -189 q 332 -210 307 -210 q 392 -161 392 -210 q 299 -105 392 -105 l 371 0 l 430 0 z "},"˝":{"ha":812,"x_min":488,"x_max":865,"o":"m 488 870 l 519 953 l 673 1113 l 625 980 l 488 870 m 680 870 l 712 953 l 865 1113 l 817 980 l 680 870 z "},"˛":{"ha":812,"x_min":210,"x_max":422,"o":"m 411 0 q 298 -150 298 -79 q 367 -203 298 -203 q 422 -195 391 -203 l 370 -265 q 328 -268 346 -268 q 210 -188 210 -268 q 357 0 210 -104 l 411 0 z "},"ˇ":{"ha":812,"x_min":425,"x_max":820,"o":"m 425 1064 l 508 1113 q 593 964 559 1057 q 705 1085 631 1011 q 724 1106 708 1088 l 820 1113 q 610 928 674 1006 l 518 870 q 425 1064 488 975 z "},"Š":{"ha":806,"x_min":79,"x_max":949,"o":"m 79 38 l 173 134 q 431 33 298 33 q 583 86 524 33 q 642 221 642 138 q 531 401 642 302 l 435 486 q 303 617 329 579 q 278 719 278 655 q 385 938 278 846 q 641 1029 492 1029 q 862 973 735 1029 l 828 803 l 785 803 q 787 832 787 824 q 735 936 787 897 q 599 975 684 975 q 452 923 511 975 q 392 795 392 871 q 422 701 392 743 q 548 576 452 658 l 628 507 q 762 293 762 393 q 636 68 762 162 q 337 -25 511 -25 q 79 38 204 -25 m 555 1282 l 637 1331 q 723 1182 688 1274 q 835 1303 761 1229 q 854 1324 838 1306 l 949 1331 q 740 1146 804 1223 l 648 1088 q 555 1282 618 1193 z "},"š":{"ha":627,"x_min":47,"x_max":774,"o":"m 47 23 l 136 115 q 315 50 224 50 q 410 80 372 50 q 449 153 449 109 q 372 284 449 201 l 311 352 q 220 517 220 451 q 308 681 220 610 q 508 753 395 753 q 646 727 570 753 l 616 577 l 574 577 l 576 589 q 577 603 577 595 q 459 694 577 694 q 327 589 327 694 q 406 446 327 535 l 461 385 q 552 216 552 282 q 456 54 552 125 q 237 -17 359 -17 q 47 23 151 -17 m 379 1064 l 462 1113 q 547 964 513 1057 q 659 1085 585 1011 q 678 1106 662 1088 l 774 1113 q 564 928 628 1006 l 472 870 q 379 1064 442 975 z "},"¦":{"ha":334,"x_min":81,"x_max":427,"o":"m 81 -201 l 191 351 l 283 351 l 174 -201 l 81 -201 m 224 519 l 334 1071 l 427 1071 l 317 519 l 224 519 z "},"Ð":{"ha":1350,"x_min":142,"x_max":1344,"o":"m 142 0 l 242 100 l 252 102 q 270 101 256 102 q 285 100 277 100 q 396 145 359 100 q 457 307 434 191 l 496 502 l 344 502 l 353 552 l 506 552 l 585 951 q 359 876 446 951 q 273 680 273 801 l 273 665 l 142 602 q 721 1004 177 1004 l 917 1004 q 1244 919 1143 1004 q 1344 644 1344 835 q 1130 158 1344 334 q 539 -17 916 -17 q 476 -15 524 -17 l 142 0 m 387 85 l 508 65 q 708 48 606 48 q 926 86 848 48 q 1070 227 1004 125 q 1187 625 1187 406 q 814 962 1187 962 l 730 962 l 648 552 l 849 552 l 839 502 l 638 502 l 626 442 q 549 228 598 300 q 387 85 500 155 z "},"ð":{"ha":845,"x_min":136,"x_max":949,"o":"m 663 726 q 656 754 659 745 q 610 882 640 813 l 359 753 l 371 813 l 589 926 q 441 1088 497 1088 q 340 1014 403 1088 l 307 1039 q 502 1188 410 1188 q 707 988 597 1188 l 949 1114 l 937 1048 l 730 943 q 816 542 816 741 q 676 150 816 317 q 347 -17 536 -17 q 196 50 255 -17 q 136 219 136 116 q 282 573 136 410 q 598 736 427 736 q 663 726 635 736 m 272 254 q 406 33 272 33 q 592 164 509 33 q 675 456 675 294 q 535 677 675 677 q 351 550 431 677 q 272 254 272 422 z "},"Ý":{"ha":1137,"x_min":193,"x_max":1197,"o":"m 273 -223 l 366 -134 q 558 -230 446 -230 q 812 102 730 -230 l 869 331 q 572 38 688 38 q 464 237 479 38 l 424 742 q 335 945 408 945 q 193 865 283 945 l 204 920 q 392 1029 314 1029 q 516 947 475 1029 q 573 673 558 865 l 601 301 q 654 168 611 168 q 759 245 688 168 q 896 433 830 323 l 1040 1004 l 1197 1017 l 1135 803 l 1002 271 q 493 -284 864 -284 q 273 -223 377 -284 m 746 1088 l 768 1149 q 1032 1331 859 1225 l 988 1222 q 746 1088 819 1137 z "},"ý":{"ha":963,"x_min":104,"x_max":985,"o":"m 167 -432 l 260 -337 q 404 -376 328 -376 q 551 -309 498 -376 q 646 -65 604 -242 l 751 368 l 743 368 q 581 103 663 207 q 452 0 499 0 q 377 53 402 0 q 334 251 353 106 l 302 515 q 240 661 283 661 q 104 543 198 661 l 117 612 q 319 753 224 753 q 396 704 373 753 q 439 498 419 655 l 468 272 q 519 151 484 151 q 638 268 562 151 q 789 519 652 290 l 841 736 l 985 745 l 925 533 l 806 51 q 614 -323 746 -194 q 291 -452 482 -452 q 167 -432 218 -452 m 581 870 l 602 931 q 867 1113 693 1008 l 823 1004 q 581 870 653 920 z "},"Þ":{"ha":926,"x_min":8,"x_max":987,"o":"m 8 0 l 109 100 l 122 100 l 151 100 q 270 157 230 100 q 342 369 311 214 l 450 895 l 267 895 l 366 1004 l 809 1004 l 704 895 l 592 895 l 578 828 q 896 786 806 828 q 987 638 987 744 q 915 449 987 540 q 736 321 843 358 q 505 293 652 293 l 530 334 q 746 422 652 334 q 840 623 840 509 q 590 787 840 787 l 571 787 l 494 413 q 271 89 452 205 l 531 83 l 438 -17 l 8 0 z "},"þ":{"ha":922,"x_min":-288,"x_max":944,"o":"m -288 -439 l -197 -342 q -53 -376 -128 -376 q 177 -90 119 -376 l 336 711 q 355 845 355 812 q 311 902 355 902 q 201 878 280 902 l 210 920 l 541 1029 l 490 810 l 401 368 l 413 368 q 598 646 490 539 q 800 753 705 753 q 944 574 944 753 q 779 177 944 364 q 428 -10 614 -10 q 351 -3 409 -10 q 328 0 344 -2 q 143 -335 275 -219 q -184 -452 11 -452 q -288 -439 -233 -452 m 347 96 q 517 58 432 58 q 713 214 640 58 q 801 546 801 399 q 738 652 801 652 q 571 530 680 652 q 378 250 462 408 l 347 96 z "},"×":{"ha":878,"x_min":89,"x_max":948,"o":"m 89 91 l 465 403 l 214 716 l 269 770 l 522 451 l 900 770 l 948 708 l 571 393 l 823 81 l 766 33 l 512 344 l 140 33 l 89 91 z "},"¹":{"ha":561,"x_min":197,"x_max":557,"o":"m 540 1029 l 458 619 q 448 555 448 571 q 501 531 448 536 l 557 527 l 549 486 l 197 486 l 205 527 l 263 531 q 318 545 309 534 q 341 619 327 555 l 393 883 q 398 922 398 905 q 334 955 398 946 l 292 962 l 300 1004 l 540 1029 z "},"²":{"ha":561,"x_min":176,"x_max":635,"o":"m 176 486 l 195 582 q 428 756 341 671 q 515 897 515 842 q 436 985 515 985 q 312 874 332 985 l 262 874 l 287 998 q 456 1029 376 1029 q 635 904 635 1029 q 588 794 635 836 q 279 581 542 751 l 572 581 l 553 486 l 176 486 z "},"³":{"ha":561,"x_min":174,"x_max":624,"o":"m 174 513 l 243 584 q 394 524 317 524 q 462 553 433 524 q 491 623 491 583 q 325 731 491 731 q 283 728 304 731 l 312 808 q 345 810 330 810 q 439 800 389 810 q 515 905 515 835 q 427 985 515 985 q 322 887 344 985 l 272 887 l 294 996 q 456 1029 375 1029 q 624 926 624 1029 q 490 781 624 841 q 589 653 589 745 q 522 530 589 580 q 356 481 456 481 q 174 513 272 481 z "},"½":{"ha":1188,"x_min":151,"x_max":1205,"o":"m 498 1029 l 416 619 q 407 555 407 570 q 459 531 407 536 l 515 527 l 507 486 l 155 486 l 163 527 l 221 531 q 276 545 267 534 q 299 619 286 555 l 351 883 q 356 922 356 905 q 292 955 356 946 l 250 962 l 258 1004 l 498 1029 m 151 -25 l 1112 1029 l 1205 1029 l 243 -25 l 151 -25 m 732 0 l 751 97 q 984 271 897 186 q 1072 411 1072 357 q 991 499 1072 499 q 868 389 888 499 l 818 389 l 842 512 q 1012 544 932 544 q 1191 418 1191 544 q 1144 308 1191 351 q 836 96 1097 266 l 1128 96 l 1109 0 l 732 0 z "},"¼":{"ha":1188,"x_min":168,"x_max":1222,"o":"m 515 1029 l 433 619 q 424 555 424 570 q 476 531 424 536 l 532 527 l 524 486 l 172 486 l 180 527 l 238 531 q 293 545 284 534 q 316 619 302 555 l 368 883 q 373 922 373 905 q 309 955 373 946 l 267 962 l 275 1004 l 515 1029 m 168 -25 l 1128 1029 l 1222 1029 l 260 -25 l 168 -25 m 924 155 l 689 171 l 704 245 l 1038 544 l 1102 544 l 1038 222 l 1142 216 l 1101 141 l 1023 147 q 1014 70 1014 96 q 1064 46 1014 50 l 1120 42 l 1112 0 l 772 0 l 781 42 l 834 46 q 896 60 882 50 q 916 110 910 71 q 924 155 919 126 m 939 230 l 977 420 l 774 240 l 939 230 z "},"¾":{"ha":1188,"x_min":163,"x_max":1222,"o":"m 163 513 l 232 584 q 383 524 307 524 q 451 553 422 524 q 480 623 480 583 q 314 731 480 731 q 272 728 294 731 l 301 808 q 334 810 319 810 q 429 800 378 810 q 505 905 505 835 q 416 985 505 985 q 311 887 333 985 l 261 887 l 283 996 q 445 1029 364 1029 q 613 926 613 1029 q 479 781 613 841 q 578 653 578 745 q 511 530 578 580 q 345 481 445 481 q 163 513 261 481 m 168 -25 l 1128 1029 l 1222 1029 l 260 -25 l 168 -25 m 924 155 l 689 171 l 704 245 l 1038 544 l 1102 544 l 1038 222 l 1142 216 l 1101 141 l 1023 147 q 1014 70 1014 96 q 1064 46 1014 50 l 1120 42 l 1112 0 l 772 0 l 781 42 l 834 46 q 897 60 883 50 q 916 110 910 71 q 924 155 919 126 m 939 230 l 977 420 l 774 240 l 939 230 z "},"­":{"ha":435,"x_min":132,"x_max":470,"o":"m 132 368 l 161 469 l 470 469 l 441 368 l 132 368 z "},"€":{"ha":765,"x_min":104,"x_max":833,"o":"m 197 437 q 350 657 237 561 q 635 753 463 753 q 833 725 728 753 l 796 587 l 749 587 q 754 627 754 616 q 713 684 754 661 q 611 707 671 707 q 329 437 419 707 l 646 437 l 637 396 l 317 396 q 313 380 315 393 l 306 345 l 306 339 l 627 339 l 618 297 l 300 297 l 300 272 q 348 109 300 168 q 482 50 397 50 q 721 127 600 50 l 711 68 q 432 -17 569 -17 q 235 56 305 -17 q 164 258 164 128 q 165 297 164 282 l 104 297 l 113 339 l 171 339 l 171 343 q 183 396 178 378 l 111 396 l 119 437 l 197 437 z "}}}
